Karla-Regular.ufo
<glyph name="exclam" format="2">
  <advance width="555"/>
  <unicode hex="0021"/>
  <outline>
    <contour>
      <point x="218" y="352" type="line"/>
      <point x="344" y="352" type="line"/>
      <point x="364" y="1252" type="line"/>
      <point x="198" y="1252" type="line"/>
    </contour>
    <contour>
      <point x="280" y="-18" type="curve" smooth="yes"/>
      <point x="348" y="-18"/>
      <point x="400" y="30"/>
      <point x="400" y="94" type="curve" smooth="yes"/>
      <point x="400" y="156"/>
      <point x="348" y="208"/>
      <point x="280" y="208" type="curve" smooth="yes"/>
      <point x="214" y="208"/>
      <point x="164" y="156"/>
      <point x="164" y="94" type="curve" smooth="yes"/>
      <point x="164" y="30"/>
      <point x="214" y="-18"/>
    </contour>
  </outline>
</glyph>
<glyph name="numbersign" format="2">
  <advance width="1251"/>
  <unicode hex="0023"/>
  <outline>
    <contour>
      <point x="276" y="62" type="line"/>
      <point x="422" y="62" type="line"/>
      <point x="452" y="340" type="line"/>
      <point x="760" y="340" type="line"/>
      <point x="730" y="62" type="line"/>
      <point x="876" y="62" type="line"/>
      <point x="906" y="340" type="line"/>
      <point x="1110" y="340" type="line"/>
      <point x="1122" y="446" type="line"/>
      <point x="918" y="446" type="line"/>
      <point x="954" y="804" type="line"/>
      <point x="1158" y="804" type="line"/>
      <point x="1170" y="910" type="line"/>
      <point x="966" y="910" type="line"/>
      <point x="994" y="1184" type="line"/>
      <point x="850" y="1184" type="line"/>
      <point x="820" y="910" type="line"/>
      <point x="512" y="910" type="line"/>
      <point x="540" y="1184" type="line"/>
      <point x="394" y="1184" type="line"/>
      <point x="366" y="910" type="line"/>
      <point x="164" y="910" type="line"/>
      <point x="154" y="804" type="line"/>
      <point x="354" y="804" type="line"/>
      <point x="316" y="446" type="line"/>
      <point x="116" y="446" type="line"/>
      <point x="106" y="340" type="line"/>
      <point x="306" y="340" type="line"/>
    </contour>
    <contour>
      <point x="462" y="446" type="line"/>
      <point x="500" y="804" type="line"/>
      <point x="808" y="804" type="line"/>
      <point x="770" y="446" type="line"/>
    </contour>
  </outline>
</glyph>
<glyph name="dollar" format="2">
  <advance width="1261"/>
  <unicode hex="0024"/>
  <outline>
    <contour>
      <point x="638" y="-24" type="curve" smooth="yes"/>
      <point x="966" y="-24"/>
      <point x="1124" y="154"/>
      <point x="1124" y="330" type="curve" smooth="yes"/>
      <point x="1124" y="502"/>
      <point x="1014" y="600"/>
      <point x="832" y="660" type="curve" smooth="yes"/>
      <point x="636" y="724" type="line"/>
      <point x="636" y="584" type="line"/>
      <point x="764" y="540" type="line" smooth="yes"/>
      <point x="882" y="502"/>
      <point x="948" y="434"/>
      <point x="948" y="334" type="curve" smooth="yes"/>
      <point x="948" y="222"/>
      <point x="846" y="120"/>
      <point x="644" y="120" type="curve" smooth="yes"/>
      <point x="436" y="120"/>
      <point x="290" y="198"/>
      <point x="290" y="376" type="curve"/>
      <point x="138" y="376" type="line"/>
      <point x="138" y="112"/>
      <point x="368" y="-24"/>
    </contour>
    <contour>
      <point x="570" y="-182" type="line"/>
      <point x="692" y="-182" type="line"/>
      <point x="692" y="1424" type="line"/>
      <point x="570" y="1424" type="line"/>
    </contour>
    <contour>
      <point x="608" y="584" type="line"/>
      <point x="608" y="726" type="line"/>
      <point x="510" y="762" type="line" smooth="yes"/>
      <point x="390" y="800"/>
      <point x="338" y="850"/>
      <point x="338" y="942" type="curve" smooth="yes"/>
      <point x="338" y="1058"/>
      <point x="438" y="1142"/>
      <point x="626" y="1142" type="curve" smooth="yes"/>
      <point x="798" y="1142"/>
      <point x="900" y="1068"/>
      <point x="920" y="952" type="curve"/>
      <point x="1076" y="952" type="line"/>
      <point x="1044" y="1148"/>
      <point x="898" y="1278"/>
      <point x="628" y="1278" type="curve" smooth="yes"/>
      <point x="330" y="1278"/>
      <point x="170" y="1142"/>
      <point x="170" y="948" type="curve" smooth="yes"/>
      <point x="170" y="774"/>
      <point x="286" y="690"/>
      <point x="506" y="618" type="curve" smooth="yes"/>
    </contour>
  </outline>
</glyph>
<glyph name="percent" format="2">
  <advance width="1451"/>
  <unicode hex="0025"/>
  <outline>
    <contour>
      <point x="222" y="0" type="line"/>
      <point x="384" y="0" type="line"/>
      <point x="1230" y="1256" type="line"/>
      <point x="1068" y="1256" type="line"/>
    </contour>
    <contour>
      <point x="1076" y="-20" type="curve" smooth="yes"/>
      <point x="1214" y="-20"/>
      <point x="1334" y="78"/>
      <point x="1334" y="268" type="curve" smooth="yes"/>
      <point x="1334" y="456"/>
      <point x="1214" y="554"/>
      <point x="1076" y="554" type="curve" smooth="yes"/>
      <point x="944" y="554"/>
      <point x="822" y="456"/>
      <point x="822" y="268" type="curve" smooth="yes"/>
      <point x="822" y="78"/>
      <point x="944" y="-20"/>
    </contour>
    <contour>
      <point x="1076" y="88" type="curve" smooth="yes"/>
      <point x="998" y="88"/>
      <point x="946" y="142"/>
      <point x="946" y="268" type="curve" smooth="yes"/>
      <point x="946" y="390"/>
      <point x="998" y="448"/>
      <point x="1076" y="448" type="curve" smooth="yes"/>
      <point x="1154" y="448"/>
      <point x="1208" y="390"/>
      <point x="1208" y="268" type="curve" smooth="yes"/>
      <point x="1208" y="142"/>
      <point x="1154" y="88"/>
    </contour>
    <contour>
      <point x="376" y="706" type="curve" smooth="yes"/>
      <point x="512" y="706"/>
      <point x="634" y="804"/>
      <point x="634" y="992" type="curve" smooth="yes"/>
      <point x="634" y="1180"/>
      <point x="512" y="1278"/>
      <point x="376" y="1278" type="curve" smooth="yes"/>
      <point x="244" y="1278"/>
      <point x="122" y="1180"/>
      <point x="122" y="992" type="curve" smooth="yes"/>
      <point x="122" y="804"/>
      <point x="244" y="706"/>
    </contour>
    <contour>
      <point x="376" y="812" type="curve" smooth="yes"/>
      <point x="298" y="812"/>
      <point x="246" y="868"/>
      <point x="246" y="992" type="curve" smooth="yes"/>
      <point x="246" y="1116"/>
      <point x="298" y="1174"/>
      <point x="376" y="1174" type="curve" smooth="yes"/>
      <point x="452" y="1174"/>
      <point x="506" y="1116"/>
      <point x="506" y="992" type="curve" smooth="yes"/>
      <point x="506" y="868"/>
      <point x="452" y="812"/>
    </contour>
  </outline>
</glyph>
<glyph name="ampersand" format="2">
  <advance width="1829"/>
  <unicode hex="0026"/>
  <outline>
    <contour>
      <point x="1466" y="-24" type="curve" smooth="yes"/>
      <point x="1636" y="-24"/>
      <point x="1726" y="88"/>
      <point x="1736" y="278" type="curve"/>
      <point x="1588" y="278" type="line"/>
      <point x="1580" y="160"/>
      <point x="1522" y="114"/>
      <point x="1454" y="114" type="curve" smooth="yes"/>
      <point x="1392" y="114"/>
      <point x="1358" y="134"/>
      <point x="1304" y="180" type="curve" smooth="yes"/>
      <point x="652" y="754" type="line" smooth="yes"/>
      <point x="572" y="824"/>
      <point x="540" y="888"/>
      <point x="540" y="960" type="curve" smooth="yes"/>
      <point x="540" y="1058"/>
      <point x="614" y="1144"/>
      <point x="758" y="1144" type="curve" smooth="yes"/>
      <point x="878" y="1144"/>
      <point x="958" y="1072"/>
      <point x="958" y="976" type="curve" smooth="yes"/>
      <point x="958" y="874"/>
      <point x="904" y="790"/>
      <point x="680" y="692" type="curve"/>
      <point x="766" y="610" type="line"/>
      <point x="1026" y="714"/>
      <point x="1130" y="830"/>
      <point x="1130" y="986" type="curve" smooth="yes"/>
      <point x="1130" y="1150"/>
      <point x="982" y="1276"/>
      <point x="758" y="1276" type="curve" smooth="yes"/>
      <point x="518" y="1276"/>
      <point x="370" y="1152"/>
      <point x="370" y="982" type="curve" smooth="yes"/>
      <point x="370" y="874"/>
      <point x="428" y="772"/>
      <point x="524" y="688" type="curve" smooth="yes"/>
      <point x="1180" y="110" type="line" smooth="yes"/>
      <point x="1282" y="18"/>
      <point x="1364" y="-24"/>
    </contour>
    <contour>
      <point x="670" y="-24" type="curve" smooth="yes"/>
      <point x="1064" y="-24"/>
      <point x="1316" y="294"/>
      <point x="1448" y="700" type="curve"/>
      <point x="1338" y="760" type="line"/>
      <point x="1214" y="406"/>
      <point x="996" y="116"/>
      <point x="672" y="116" type="curve" smooth="yes"/>
      <point x="462" y="116"/>
      <point x="348" y="224"/>
      <point x="348" y="354" type="curve" smooth="yes"/>
      <point x="348" y="486"/>
      <point x="456" y="558"/>
      <point x="690" y="582" type="curve"/>
      <point x="652" y="674" type="line"/>
      <point x="344" y="648"/>
      <point x="178" y="552"/>
      <point x="178" y="348" type="curve" smooth="yes"/>
      <point x="178" y="140"/>
      <point x="388" y="-24"/>
    </contour>
  </outline>
</glyph>
<glyph name="quotesingle" format="2">
  <advance width="271"/>
  <unicode hex="0027"/>
  <outline>
    <contour>
      <point x="56" y="1354" type="line"/>
      <point x="76" y="914" type="line"/>
      <point x="194" y="914" type="line"/>
      <point x="216" y="1354" type="line"/>
    </contour>
  </outline>
</glyph>
<glyph name="parenleft" format="2">
  <advance width="711"/>
  <unicode hex="0028"/>
  <outline>
    <contour>
      <point x="542" y="1454" type="line"/>
      <point x="282" y="1218"/>
      <point x="146" y="922"/>
      <point x="146" y="614" type="curve" smooth="yes"/>
      <point x="146" y="308"/>
      <point x="282" y="10"/>
      <point x="542" y="-228" type="curve"/>
      <point x="654" y="-146" type="line"/>
      <point x="426" y="84"/>
      <point x="310" y="344"/>
      <point x="310" y="614" type="curve" smooth="yes"/>
      <point x="310" y="884"/>
      <point x="426" y="1144"/>
      <point x="654" y="1376" type="curve"/>
    </contour>
  </outline>
</glyph>
<glyph name="parenright" format="2">
  <advance width="711"/>
  <unicode hex="0029"/>
  <outline>
    <contour>
      <point x="170" y="-228" type="line"/>
      <point x="428" y="10"/>
      <point x="566" y="308"/>
      <point x="566" y="614" type="curve" smooth="yes"/>
      <point x="566" y="922"/>
      <point x="428" y="1218"/>
      <point x="170" y="1454" type="curve"/>
      <point x="56" y="1376" type="line"/>
      <point x="284" y="1144"/>
      <point x="402" y="884"/>
      <point x="402" y="614" type="curve" smooth="yes"/>
      <point x="402" y="344"/>
      <point x="284" y="84"/>
      <point x="56" y="-146" type="curve"/>
    </contour>
  </outline>
</glyph>
<glyph name="asterisk" format="2">
  <advance width="825"/>
  <unicode hex="002A"/>
  <outline>
    <contour>
      <point x="166" y="854" type="line"/>
      <point x="256" y="776" type="line"/>
      <point x="416" y="984" type="line"/>
      <point x="574" y="776" type="line"/>
      <point x="664" y="854" type="line"/>
      <point x="484" y="1032" type="line"/>
      <point x="716" y="1112" type="line"/>
      <point x="668" y="1220" type="line"/>
      <point x="456" y="1112" type="line"/>
      <point x="474" y="1368" type="line"/>
      <point x="354" y="1368" type="line"/>
      <point x="372" y="1112" type="line"/>
      <point x="160" y="1218" type="line"/>
      <point x="112" y="1112" type="line"/>
      <point x="346" y="1030" type="line"/>
    </contour>
  </outline>
</glyph>
<glyph name="plus" format="2">
  <advance width="1054"/>
  <unicode hex="002B"/>
  <outline>
    <contour>
      <point x="450" y="982" type="line"/>
      <point x="450" y="558" type="line"/>
      <point x="36" y="558" type="line"/>
      <point x="36" y="424" type="line"/>
      <point x="450" y="424" type="line"/>
      <point x="450" y="0" type="line"/>
      <point x="604" y="0" type="line"/>
      <point x="604" y="424" type="line"/>
      <point x="1018" y="424" type="line"/>
      <point x="1018" y="558" type="line"/>
      <point x="604" y="558" type="line"/>
      <point x="604" y="982" type="line"/>
    </contour>
  </outline>
</glyph>
<glyph name="comma" format="2">
  <advance width="418"/>
  <unicode hex="002C"/>
  <outline>
    <contour>
      <point x="178" y="-218" type="line"/>
      <point x="294" y="-160"/>
      <point x="354" y="-56"/>
      <point x="354" y="38" type="curve" smooth="yes"/>
      <point x="354" y="124"/>
      <point x="298" y="192"/>
      <point x="216" y="192" type="curve" smooth="yes"/>
      <point x="150" y="192"/>
      <point x="104" y="146"/>
      <point x="104" y="90" type="curve" smooth="yes"/>
      <point x="104" y="32"/>
      <point x="150" y="-4"/>
      <point x="208" y="-10" type="curve"/>
      <point x="192" y="-78"/>
      <point x="136" y="-122"/>
      <point x="60" y="-160" type="curve"/>
    </contour>
  </outline>
</glyph>
<glyph name="hyphen" format="2">
  <advance width="696"/>
  <unicode hex="002D"/>
  <outline>
    <contour>
      <point x="76" y="514" type="line"/>
      <point x="620" y="514" type="line"/>
      <point x="620" y="650" type="line"/>
      <point x="76" y="650" type="line"/>
    </contour>
  </outline>
</glyph>
<glyph name="period" format="2">
  <advance width="357"/>
  <unicode hex="002E"/>
  <outline>
    <contour>
      <point x="60" y="94" type="curve" smooth="yes"/>
      <point x="60" y="30"/>
      <point x="110" y="-18"/>
      <point x="176" y="-18" type="curve" smooth="yes"/>
      <point x="244" y="-18"/>
      <point x="296" y="30"/>
      <point x="296" y="94" type="curve" smooth="yes"/>
      <point x="296" y="156"/>
      <point x="244" y="208"/>
      <point x="176" y="208" type="curve" smooth="yes"/>
      <point x="110" y="208"/>
      <point x="60" y="156"/>
    </contour>
  </outline>
</glyph>
<glyph name="slash" format="2">
  <advance width="863"/>
  <unicode hex="002F"/>
  <outline>
    <contour>
      <point x="114" y="-144" type="line"/>
      <point x="270" y="-144" type="line"/>
      <point x="776" y="1462" type="line"/>
      <point x="616" y="1462" type="line"/>
    </contour>
  </outline>
</glyph>
<glyph name="zero" format="2">
  <advance width="1187"/>
  <unicode hex="0030"/>
  <outline>
    <contour>
      <point x="594" y="-24" type="curve" smooth="yes"/>
      <point x="888" y="-24"/>
      <point x="1086" y="192"/>
      <point x="1086" y="628" type="curve" smooth="yes"/>
      <point x="1086" y="1064"/>
      <point x="888" y="1278"/>
      <point x="594" y="1278" type="curve" smooth="yes"/>
      <point x="298" y="1278"/>
      <point x="102" y="1064"/>
      <point x="102" y="628" type="curve" smooth="yes"/>
      <point x="102" y="192"/>
      <point x="298" y="-24"/>
    </contour>
    <contour>
      <point x="594" y="120" type="curve" smooth="yes"/>
      <point x="380" y="120"/>
      <point x="264" y="304"/>
      <point x="264" y="628" type="curve" smooth="yes"/>
      <point x="264" y="952"/>
      <point x="380" y="1136"/>
      <point x="594" y="1136" type="curve" smooth="yes"/>
      <point x="810" y="1136"/>
      <point x="924" y="952"/>
      <point x="924" y="628" type="curve" smooth="yes"/>
      <point x="924" y="304"/>
      <point x="810" y="120"/>
    </contour>
  </outline>
</glyph>
<glyph name="one" format="2">
  <advance width="661"/>
  <unicode hex="0031"/>
  <outline>
    <contour>
      <point x="332" y="1260" type="line"/>
      <point x="260" y="1200"/>
      <point x="180" y="1170"/>
      <point x="96" y="1158" type="curve"/>
      <point x="96" y="1006" type="line"/>
      <point x="166" y="1008"/>
      <point x="238" y="1032"/>
      <point x="302" y="1076" type="curve"/>
      <point x="302" y="0" type="line"/>
      <point x="458" y="0" type="line"/>
      <point x="458" y="1260" type="line"/>
    </contour>
  </outline>
</glyph>
<glyph name="two" format="2">
  <advance width="1159"/>
  <unicode hex="0032"/>
  <outline>
    <contour>
      <point x="128" y="0" type="line"/>
      <point x="1014" y="0" type="line"/>
      <point x="1014" y="144" type="line"/>
      <point x="284" y="144" type="line"/>
      <point x="284" y="204" type="line" smooth="yes"/>
      <point x="284" y="314"/>
      <point x="348" y="378"/>
      <point x="476" y="428" type="curve" smooth="yes"/>
      <point x="730" y="530" type="line" smooth="yes"/>
      <point x="912" y="604"/>
      <point x="1026" y="718"/>
      <point x="1026" y="912" type="curve" smooth="yes"/>
      <point x="1026" y="1126"/>
      <point x="844" y="1278"/>
      <point x="602" y="1278" type="curve" smooth="yes"/>
      <point x="338" y="1278"/>
      <point x="164" y="1156"/>
      <point x="150" y="938" type="curve"/>
      <point x="324" y="938" type="line"/>
      <point x="338" y="1072"/>
      <point x="446" y="1140"/>
      <point x="604" y="1140" type="curve" smooth="yes"/>
      <point x="762" y="1140"/>
      <point x="856" y="1050"/>
      <point x="856" y="922" type="curve" smooth="yes"/>
      <point x="856" y="800"/>
      <point x="792" y="722"/>
      <point x="664" y="670" type="curve" smooth="yes"/>
      <point x="416" y="572" type="line" smooth="yes"/>
      <point x="240" y="502"/>
      <point x="128" y="404"/>
      <point x="128" y="186" type="curve" smooth="yes"/>
    </contour>
  </outline>
</glyph>
<glyph name="three" format="2">
  <advance width="1181"/>
  <unicode hex="0033"/>
  <outline>
    <contour>
      <point x="594" y="-24" type="curve" smooth="yes"/>
      <point x="880" y="-24"/>
      <point x="1058" y="130"/>
      <point x="1058" y="346" type="curve" smooth="yes"/>
      <point x="1058" y="508"/>
      <point x="946" y="612"/>
      <point x="788" y="658" type="curve"/>
      <point x="930" y="708"/>
      <point x="1008" y="804"/>
      <point x="1008" y="936" type="curve" smooth="yes"/>
      <point x="1008" y="1136"/>
      <point x="824" y="1278"/>
      <point x="574" y="1278" type="curve" smooth="yes"/>
      <point x="350" y="1278"/>
      <point x="174" y="1186"/>
      <point x="142" y="952" type="curve"/>
      <point x="302" y="952" type="line"/>
      <point x="338" y="1092"/>
      <point x="448" y="1136"/>
      <point x="578" y="1136" type="curve" smooth="yes"/>
      <point x="746" y="1136"/>
      <point x="840" y="1042"/>
      <point x="840" y="922" type="curve" smooth="yes"/>
      <point x="840" y="786"/>
      <point x="720" y="704"/>
      <point x="526" y="704" type="curve" smooth="yes"/>
      <point x="430" y="704" type="line"/>
      <point x="430" y="580" type="line"/>
      <point x="572" y="580" type="line" smooth="yes"/>
      <point x="798" y="580"/>
      <point x="888" y="488"/>
      <point x="888" y="358" type="curve" smooth="yes"/>
      <point x="888" y="222"/>
      <point x="780" y="120"/>
      <point x="594" y="120" type="curve" smooth="yes"/>
      <point x="412" y="120"/>
      <point x="270" y="212"/>
      <point x="266" y="384" type="curve"/>
      <point x="106" y="384" type="line"/>
      <point x="106" y="118"/>
      <point x="342" y="-24"/>
    </contour>
  </outline>
</glyph>
<glyph name="four" format="2">
  <advance width="1117"/>
  <unicode hex="0034"/>
  <outline>
    <contour>
      <point x="710" y="1274" type="line"/>
      <point x="52" y="426" type="line"/>
      <point x="52" y="306" type="line"/>
      <point x="702" y="306" type="line"/>
      <point x="702" y="0" type="line"/>
      <point x="856" y="0" type="line"/>
      <point x="856" y="306" type="line"/>
      <point x="1074" y="306" type="line"/>
      <point x="1074" y="438" type="line"/>
      <point x="856" y="438" type="line"/>
      <point x="856" y="1274" type="line"/>
    </contour>
    <contour>
      <point x="708" y="1028" type="line"/>
      <point x="708" y="426" type="line"/>
      <point x="238" y="426" type="line"/>
    </contour>
  </outline>
</glyph>
<glyph name="five" format="2">
  <advance width="1129"/>
  <unicode hex="0035"/>
  <outline>
    <contour>
      <point x="564" y="-24" type="curve" smooth="yes"/>
      <point x="842" y="-24"/>
      <point x="1016" y="162"/>
      <point x="1016" y="406" type="curve" smooth="yes"/>
      <point x="1016" y="646"/>
      <point x="846" y="768"/>
      <point x="574" y="768" type="curve" smooth="yes"/>
      <point x="510" y="768"/>
      <point x="420" y="762"/>
      <point x="356" y="748" type="curve"/>
      <point x="376" y="730" type="line"/>
      <point x="418" y="1168" type="line"/>
      <point x="386" y="1114" type="line"/>
      <point x="956" y="1114" type="line"/>
      <point x="956" y="1256" type="line"/>
      <point x="260" y="1256" type="line"/>
      <point x="206" y="648" type="line"/>
      <point x="542" y="648" type="line" smooth="yes"/>
      <point x="748" y="648"/>
      <point x="854" y="564"/>
      <point x="854" y="406" type="curve" smooth="yes"/>
      <point x="854" y="244"/>
      <point x="744" y="120"/>
      <point x="564" y="120" type="curve" smooth="yes"/>
      <point x="408" y="120"/>
      <point x="286" y="198"/>
      <point x="286" y="350" type="curve"/>
      <point x="130" y="350" type="line"/>
      <point x="132" y="108"/>
      <point x="326" y="-24"/>
    </contour>
  </outline>
</glyph>
<glyph name="six" format="2">
  <advance width="1145"/>
  <unicode hex="0036"/>
  <outline>
    <contour>
      <point x="602" y="-24" type="curve" smooth="yes"/>
      <point x="856" y="-24"/>
      <point x="1030" y="132"/>
      <point x="1030" y="364" type="curve" smooth="yes"/>
      <point x="1030" y="594"/>
      <point x="858" y="756"/>
      <point x="630" y="756" type="curve" smooth="yes"/>
      <point x="454" y="756"/>
      <point x="288" y="672"/>
      <point x="270" y="406" type="curve"/>
      <point x="262" y="462"/>
      <point x="260" y="532"/>
      <point x="260" y="582" type="curve" smooth="yes"/>
      <point x="260" y="924"/>
      <point x="398" y="1136"/>
      <point x="628" y="1136" type="curve" smooth="yes"/>
      <point x="762" y="1136"/>
      <point x="830" y="1060"/>
      <point x="850" y="940" type="curve"/>
      <point x="1020" y="940" type="line"/>
      <point x="1000" y="1142"/>
      <point x="848" y="1278"/>
      <point x="624" y="1278" type="curve" smooth="yes"/>
      <point x="300" y="1278"/>
      <point x="102" y="1028"/>
      <point x="102" y="606" type="curve" smooth="yes"/>
      <point x="102" y="248"/>
      <point x="300" y="-24"/>
    </contour>
    <contour>
      <point x="602" y="120" type="curve" smooth="yes"/>
      <point x="452" y="120"/>
      <point x="340" y="216"/>
      <point x="340" y="368" type="curve" smooth="yes"/>
      <point x="340" y="512"/>
      <point x="452" y="618"/>
      <point x="602" y="618" type="curve" smooth="yes"/>
      <point x="754" y="618"/>
      <point x="866" y="524"/>
      <point x="866" y="368" type="curve" smooth="yes"/>
      <point x="866" y="216"/>
      <point x="754" y="120"/>
    </contour>
  </outline>
</glyph>
<glyph name="seven" format="2">
  <advance width="939"/>
  <unicode hex="0037"/>
  <outline>
    <contour>
      <point x="118" y="0" type="line"/>
      <point x="326" y="0" type="line"/>
      <point x="904" y="1112" type="line"/>
      <point x="904" y="1256" type="line"/>
      <point x="48" y="1256" type="line"/>
      <point x="48" y="1108" type="line"/>
      <point x="720" y="1108" type="line"/>
    </contour>
  </outline>
</glyph>
<glyph name="nine" format="2">
  <advance width="1160"/>
  <unicode hex="0039"/>
  <outline>
    <contour>
      <point x="568" y="-24" type="curve" smooth="yes"/>
      <point x="904" y="-24"/>
      <point x="1058" y="238"/>
      <point x="1058" y="652" type="curve" smooth="yes"/>
      <point x="1058" y="1032"/>
      <point x="846" y="1278"/>
      <point x="558" y="1278" type="curve" smooth="yes"/>
      <point x="304" y="1278"/>
      <point x="132" y="1126"/>
      <point x="132" y="892" type="curve" smooth="yes"/>
      <point x="132" y="664"/>
      <point x="304" y="500"/>
      <point x="528" y="500" type="curve" smooth="yes"/>
      <point x="720" y="500"/>
      <point x="862" y="606"/>
      <point x="888" y="822" type="curve"/>
      <point x="896" y="766"/>
      <point x="898" y="726"/>
      <point x="898" y="674" type="curve" smooth="yes"/>
      <point x="898" y="336"/>
      <point x="800" y="120"/>
      <point x="564" y="120" type="curve" smooth="yes"/>
      <point x="404" y="120"/>
      <point x="306" y="218"/>
      <point x="302" y="372" type="curve"/>
      <point x="140" y="372" type="line"/>
      <point x="140" y="142"/>
      <point x="320" y="-24"/>
    </contour>
    <contour>
      <point x="558" y="638" type="curve" smooth="yes"/>
      <point x="406" y="638"/>
      <point x="294" y="732"/>
      <point x="294" y="886" type="curve" smooth="yes"/>
      <point x="294" y="1040"/>
      <point x="406" y="1136"/>
      <point x="558" y="1136" type="curve" smooth="yes"/>
      <point x="706" y="1136"/>
      <point x="822" y="1040"/>
      <point x="822" y="886" type="curve" smooth="yes"/>
      <point x="822" y="746"/>
      <point x="706" y="638"/>
    </contour>
  </outline>
</glyph>
<glyph name="less" format="2">
  <advance width="906"/>
  <unicode hex="003C"/>
  <outline>
    <contour>
      <point x="712" y="1142" type="line"/>
      <point x="82" y="678" type="line"/>
      <point x="82" y="542" type="line"/>
      <point x="712" y="80" type="line"/>
      <point x="814" y="202" type="line"/>
      <point x="192" y="642" type="line"/>
      <point x="192" y="578" type="line"/>
      <point x="814" y="1022" type="line"/>
    </contour>
  </outline>
</glyph>
<glyph name="equal" format="2">
  <advance width="975"/>
  <unicode hex="003D"/>
  <outline>
    <contour>
      <point x="158" y="368" type="line"/>
      <point x="158" y="234" type="line"/>
      <point x="816" y="234" type="line"/>
      <point x="816" y="368" type="line"/>
    </contour>
    <contour>
      <point x="158" y="752" type="line"/>
      <point x="158" y="616" type="line"/>
      <point x="816" y="616" type="line"/>
      <point x="816" y="752" type="line"/>
    </contour>
  </outline>
</glyph>
<glyph name="greater" format="2">
  <advance width="906"/>
  <unicode hex="003E"/>
  <outline>
    <contour>
      <point x="196" y="80" type="line"/>
      <point x="826" y="542" type="line"/>
      <point x="826" y="678" type="line"/>
      <point x="196" y="1142" type="line"/>
      <point x="94" y="1022" type="line"/>
      <point x="712" y="578" type="line"/>
      <point x="712" y="642" type="line"/>
      <point x="94" y="202" type="line"/>
    </contour>
  </outline>
</glyph>
<glyph name="question" format="2">
  <advance width="997"/>
  <unicode hex="003F"/>
  <outline>
    <contour>
      <point x="354" y="320" type="line"/>
      <point x="508" y="320" type="line"/>
      <point x="508" y="400" type="line" smooth="yes"/>
      <point x="508" y="530"/>
      <point x="550" y="572"/>
      <point x="684" y="646" type="curve" smooth="yes"/>
      <point x="838" y="728"/>
      <point x="904" y="812"/>
      <point x="904" y="950" type="curve" smooth="yes"/>
      <point x="904" y="1130"/>
      <point x="748" y="1278"/>
      <point x="492" y="1278" type="curve" smooth="yes"/>
      <point x="224" y="1278"/>
      <point x="78" y="1146"/>
      <point x="60" y="952" type="curve"/>
      <point x="226" y="952" type="line"/>
      <point x="248" y="1068"/>
      <point x="332" y="1136"/>
      <point x="496" y="1136" type="curve" smooth="yes"/>
      <point x="644" y="1136"/>
      <point x="734" y="1058"/>
      <point x="734" y="954" type="curve" smooth="yes"/>
      <point x="734" y="850"/>
      <point x="686" y="804"/>
      <point x="552" y="732" type="curve" smooth="yes"/>
      <point x="402" y="650"/>
      <point x="354" y="584"/>
      <point x="354" y="410" type="curve" smooth="yes"/>
    </contour>
    <contour>
      <point x="434" y="-24" type="curve" smooth="yes"/>
      <point x="500" y="-24"/>
      <point x="554" y="26"/>
      <point x="554" y="88" type="curve" smooth="yes"/>
      <point x="554" y="150"/>
      <point x="500" y="202"/>
      <point x="434" y="202" type="curve" smooth="yes"/>
      <point x="366" y="202"/>
      <point x="318" y="150"/>
      <point x="318" y="88" type="curve" smooth="yes"/>
      <point x="318" y="26"/>
      <point x="366" y="-24"/>
    </contour>
  </outline>
</glyph>
<glyph name="at" format="2">
  <advance width="1877"/>
  <unicode hex="0040"/>
  <outline>
    <contour>
      <point x="1088" y="-360" type="curve"/>
      <point x="1088" y="-234" type="line"/>
      <point x="594" y="-234"/>
      <point x="294" y="36"/>
      <point x="294" y="440" type="curve" smooth="yes"/>
      <point x="294" y="822"/>
      <point x="582" y="1140"/>
      <point x="1020" y="1140" type="curve" smooth="yes"/>
      <point x="1394" y="1140"/>
      <point x="1624" y="906"/>
      <point x="1624" y="592" type="curve" smooth="yes"/>
      <point x="1624" y="318"/>
      <point x="1466" y="172"/>
      <point x="1358" y="172" type="curve" smooth="yes"/>
      <point x="1304" y="172"/>
      <point x="1280" y="204"/>
      <point x="1280" y="276" type="curve" smooth="yes"/>
      <point x="1280" y="580" type="line" smooth="yes"/>
      <point x="1280" y="774"/>
      <point x="1178" y="870"/>
      <point x="1022" y="870" type="curve" smooth="yes"/>
      <point x="786" y="870"/>
      <point x="576" y="670"/>
      <point x="576" y="402" type="curve" smooth="yes"/>
      <point x="576" y="194"/>
      <point x="732" y="56"/>
      <point x="892" y="56" type="curve" smooth="yes"/>
      <point x="1028" y="56"/>
      <point x="1102" y="130"/>
      <point x="1150" y="228" type="curve"/>
      <point x="1156" y="198" type="line" smooth="yes"/>
      <point x="1170" y="106"/>
      <point x="1242" y="56"/>
      <point x="1354" y="56" type="curve" smooth="yes"/>
      <point x="1572" y="56"/>
      <point x="1784" y="262"/>
      <point x="1784" y="592" type="curve" smooth="yes"/>
      <point x="1784" y="972"/>
      <point x="1476" y="1278"/>
      <point x="1020" y="1278" type="curve" smooth="yes"/>
      <point x="502" y="1278"/>
      <point x="134" y="930"/>
      <point x="134" y="448" type="curve" smooth="yes"/>
      <point x="134" y="-16"/>
      <point x="512" y="-360"/>
    </contour>
    <contour>
      <point x="918" y="182" type="curve" smooth="yes"/>
      <point x="806" y="182"/>
      <point x="724" y="264"/>
      <point x="724" y="404" type="curve" smooth="yes"/>
      <point x="724" y="618"/>
      <point x="890" y="748"/>
      <point x="1018" y="748" type="curve" smooth="yes"/>
      <point x="1112" y="748"/>
      <point x="1148" y="692"/>
      <point x="1148" y="580" type="curve" smooth="yes"/>
      <point x="1148" y="366" type="line"/>
      <point x="1088" y="248"/>
      <point x="1024" y="182"/>
    </contour>
  </outline>
</glyph>
<glyph name="A" format="2">
  <advance width="1149"/>
  <unicode hex="0041"/>
  <anchor x="578" y="1270" name="above"/>
  <outline>
    <contour>
      <point x="52" y="0" type="line"/>
      <point x="216" y="0" type="line"/>
      <point x="326" y="322" type="line"/>
      <point x="826" y="322" type="line"/>
      <point x="932" y="0" type="line"/>
      <point x="1096" y="0" type="line"/>
      <point x="674" y="1256" type="line"/>
      <point x="484" y="1256" type="line"/>
    </contour>
    <contour>
      <point x="366" y="444" type="line"/>
      <point x="576" y="1066" type="line"/>
      <point x="786" y="444" type="line"/>
    </contour>
  </outline>
</glyph>
<glyph name="B" format="2">
  <advance width="1243"/>
  <unicode hex="0042"/>
  <outline>
    <contour>
      <point x="202" y="0" type="line"/>
      <point x="672" y="0" type="line" smooth="yes"/>
      <point x="1000" y="0"/>
      <point x="1104" y="172"/>
      <point x="1104" y="342" type="curve" smooth="yes"/>
      <point x="1104" y="482"/>
      <point x="998" y="608"/>
      <point x="844" y="632" type="curve"/>
      <point x="1002" y="670"/>
      <point x="1082" y="784"/>
      <point x="1082" y="928" type="curve" smooth="yes"/>
      <point x="1082" y="1104"/>
      <point x="948" y="1256"/>
      <point x="672" y="1256" type="curve" smooth="yes"/>
      <point x="202" y="1256" type="line"/>
    </contour>
    <contour>
      <point x="358" y="136" type="line"/>
      <point x="358" y="560" type="line"/>
      <point x="670" y="560" type="line" smooth="yes"/>
      <point x="846" y="560"/>
      <point x="938" y="476"/>
      <point x="938" y="350" type="curve" smooth="yes"/>
      <point x="938" y="224"/>
      <point x="860" y="136"/>
      <point x="670" y="136" type="curve" smooth="yes"/>
    </contour>
    <contour>
      <point x="358" y="1122" type="line"/>
      <point x="668" y="1122" type="line" smooth="yes"/>
      <point x="826" y="1122"/>
      <point x="922" y="1044"/>
      <point x="922" y="914" type="curve" smooth="yes"/>
      <point x="922" y="774"/>
      <point x="822" y="694"/>
      <point x="666" y="694" type="curve" smooth="yes"/>
      <point x="358" y="694" type="line"/>
    </contour>
  </outline>
</glyph>
<glyph name="C" format="2">
  <advance width="1226"/>
  <unicode hex="0043"/>
  <outline>
    <contour>
      <point x="638" y="-24" type="curve" smooth="yes"/>
      <point x="932" y="-24"/>
      <point x="1132" y="138"/>
      <point x="1132" y="408" type="curve"/>
      <point x="962" y="408" type="line"/>
      <point x="962" y="234"/>
      <point x="836" y="118"/>
      <point x="638" y="118" type="curve" smooth="yes"/>
      <point x="390" y="118"/>
      <point x="270" y="336"/>
      <point x="270" y="636" type="curve" smooth="yes"/>
      <point x="270" y="966"/>
      <point x="440" y="1138"/>
      <point x="638" y="1138" type="curve" smooth="yes"/>
      <point x="790" y="1138"/>
      <point x="910" y="1038"/>
      <point x="962" y="882" type="curve"/>
      <point x="1130" y="916" type="line"/>
      <point x="1068" y="1130"/>
      <point x="906" y="1278"/>
      <point x="638" y="1278" type="curve" smooth="yes"/>
      <point x="334" y="1278"/>
      <point x="102" y="1054"/>
      <point x="102" y="636" type="curve" smooth="yes"/>
      <point x="102" y="244"/>
      <point x="306" y="-24"/>
    </contour>
  </outline>
</glyph>
<glyph name="D" format="2">
  <advance width="1320"/>
  <unicode hex="0044"/>
  <outline>
    <contour>
      <point x="202" y="1256" type="line"/>
      <point x="202" y="0" type="line"/>
      <point x="570" y="0" type="line" smooth="yes"/>
      <point x="950" y="0"/>
      <point x="1194" y="250"/>
      <point x="1194" y="628" type="curve" smooth="yes"/>
      <point x="1194" y="1010"/>
      <point x="950" y="1256"/>
      <point x="570" y="1256" type="curve" smooth="yes"/>
    </contour>
    <contour>
      <point x="358" y="1118" type="line"/>
      <point x="570" y="1118" type="line" smooth="yes"/>
      <point x="854" y="1118"/>
      <point x="1028" y="912"/>
      <point x="1028" y="628" type="curve" smooth="yes"/>
      <point x="1028" y="346"/>
      <point x="854" y="136"/>
      <point x="570" y="136" type="curve" smooth="yes"/>
      <point x="358" y="136" type="line"/>
    </contour>
  </outline>
</glyph>
<glyph name="E" format="2">
  <advance width="1124"/>
  <unicode hex="0045"/>
  <anchor x="588" y="1270" name="above"/>
  <outline>
    <contour>
      <point x="200" y="0" type="line"/>
      <point x="974" y="0" type="line"/>
      <point x="974" y="136" type="line"/>
      <point x="356" y="136" type="line"/>
      <point x="356" y="566" type="line"/>
      <point x="938" y="566" type="line"/>
      <point x="938" y="700" type="line"/>
      <point x="356" y="700" type="line"/>
      <point x="356" y="1122" type="line"/>
      <point x="974" y="1122" type="line"/>
      <point x="974" y="1256" type="line"/>
      <point x="200" y="1256" type="line"/>
    </contour>
  </outline>
</glyph>
<glyph name="F" format="2">
  <advance width="1048"/>
  <unicode hex="0046"/>
  <outline>
    <contour>
      <point x="202" y="0" type="line"/>
      <point x="358" y="0" type="line"/>
      <point x="358" y="570" type="line"/>
      <point x="924" y="570" type="line"/>
      <point x="924" y="704" type="line"/>
      <point x="358" y="704" type="line"/>
      <point x="358" y="1122" type="line"/>
      <point x="966" y="1122" type="line"/>
      <point x="966" y="1256" type="line"/>
      <point x="202" y="1256" type="line"/>
    </contour>
  </outline>
</glyph>
<glyph name="G" format="2">
  <advance width="1288"/>
  <unicode hex="0047"/>
  <outline>
    <contour>
      <point x="644" y="-24" type="curve" smooth="yes"/>
      <point x="914" y="-24"/>
      <point x="1022" y="182"/>
      <point x="1022" y="502" type="curve"/>
      <point x="974" y="502" type="line"/>
      <point x="974" y="244"/>
      <point x="836" y="120"/>
      <point x="654" y="120" type="curve" smooth="yes"/>
      <point x="416" y="120"/>
      <point x="268" y="326"/>
      <point x="268" y="614" type="curve" smooth="yes"/>
      <point x="268" y="938"/>
      <point x="460" y="1136"/>
      <point x="686" y="1136" type="curve" smooth="yes"/>
      <point x="800" y="1136"/>
      <point x="902" y="1084"/>
      <point x="992" y="974" type="curve"/>
      <point x="1140" y="1026" type="line"/>
      <point x="1034" y="1200"/>
      <point x="888" y="1278"/>
      <point x="692" y="1278" type="curve" smooth="yes"/>
      <point x="374" y="1278"/>
      <point x="102" y="1048"/>
      <point x="102" y="614" type="curve" smooth="yes"/>
      <point x="102" y="222"/>
      <point x="344" y="-24"/>
    </contour>
    <contour>
      <point x="1002" y="0" type="line"/>
      <point x="1126" y="0" type="line"/>
      <point x="1126" y="622" type="line"/>
      <point x="658" y="622" type="line"/>
      <point x="658" y="516" type="line"/>
      <point x="974" y="506" type="line"/>
      <point x="974" y="296" type="line"/>
    </contour>
  </outline>
</glyph>
<glyph name="H" format="2">
  <advance width="1337"/>
  <unicode hex="0048"/>
  <outline>
    <contour>
      <point x="202" y="1256" type="line"/>
      <point x="202" y="0" type="line"/>
      <point x="358" y="0" type="line"/>
      <point x="358" y="568" type="line"/>
      <point x="980" y="568" type="line"/>
      <point x="980" y="0" type="line"/>
      <point x="1134" y="0" type="line"/>
      <point x="1134" y="1256" type="line"/>
      <point x="980" y="1256" type="line"/>
      <point x="980" y="702" type="line"/>
      <point x="358" y="702" type="line"/>
      <point x="358" y="1256" type="line"/>
    </contour>
  </outline>
</glyph>
<glyph name="I" format="2">
  <advance width="560"/>
  <unicode hex="0049"/>
  <anchor x="280" y="1270" name="above"/>
  <outline>
    <contour>
      <point x="202" y="0" type="line"/>
      <point x="358" y="0" type="line"/>
      <point x="358" y="1256" type="line"/>
      <point x="202" y="1256" type="line"/>
    </contour>
  </outline>
</glyph>
<glyph name="J" format="2">
  <advance width="807"/>
  <unicode hex="004A"/>
  <outline>
    <contour>
      <point x="16" y="62" type="line"/>
      <point x="104" y="12"/>
      <point x="198" y="-24"/>
      <point x="306" y="-24" type="curve" smooth="yes"/>
      <point x="514" y="-24"/>
      <point x="646" y="90"/>
      <point x="646" y="364" type="curve" smooth="yes"/>
      <point x="646" y="1256" type="line"/>
      <point x="490" y="1256" type="line"/>
      <point x="490" y="364" type="line" smooth="yes"/>
      <point x="490" y="214"/>
      <point x="436" y="128"/>
      <point x="296" y="128" type="curve" smooth="yes"/>
      <point x="206" y="128"/>
      <point x="110" y="162"/>
      <point x="16" y="224" type="curve"/>
    </contour>
  </outline>
</glyph>
<glyph name="K" format="2">
  <advance width="1215"/>
  <unicode hex="004B"/>
  <outline>
    <contour>
      <point x="924" y="1256" type="line"/>
      <point x="338" y="650" type="line"/>
      <point x="338" y="430" type="line"/>
      <point x="1140" y="1256" type="line"/>
    </contour>
    <contour>
      <point x="564" y="726" type="line"/>
      <point x="452" y="624" type="line"/>
      <point x="970" y="0" type="line"/>
      <point x="1174" y="0" type="line"/>
    </contour>
    <contour>
      <point x="202" y="1256" type="line"/>
      <point x="202" y="0" type="line"/>
      <point x="360" y="0" type="line"/>
      <point x="360" y="1256" type="line"/>
    </contour>
  </outline>
</glyph>
<glyph name="L" format="2">
  <advance width="935"/>
  <unicode hex="004C"/>
  <outline>
    <contour>
      <point x="358" y="1256" type="line"/>
      <point x="202" y="1256" type="line"/>
      <point x="202" y="0" type="line"/>
      <point x="918" y="0" type="line"/>
      <point x="918" y="136" type="line"/>
      <point x="358" y="136" type="line"/>
    </contour>
  </outline>
</glyph>
<glyph name="M" format="2">
  <advance width="1694"/>
  <unicode hex="004D"/>
  <outline>
    <contour>
      <point x="202" y="1256" type="line"/>
      <point x="202" y="0" type="line"/>
      <point x="358" y="0" type="line"/>
      <point x="358" y="1088" type="line"/>
      <point x="340" y="1088" type="line"/>
      <point x="798" y="158" type="line"/>
      <point x="902" y="158" type="line"/>
      <point x="1362" y="1094" type="line"/>
      <point x="1334" y="1094" type="line"/>
      <point x="1334" y="0" type="line"/>
      <point x="1492" y="0" type="line"/>
      <point x="1492" y="1256" type="line"/>
      <point x="1274" y="1256" type="line"/>
      <point x="842" y="388" type="line"/>
      <point x="858" y="388" type="line"/>
      <point x="426" y="1256" type="line"/>
    </contour>
  </outline>
</glyph>
<glyph name="N" format="2">
  <advance width="1368"/>
  <unicode hex="004E"/>
  <anchor x="682" y="1270" name="above"/>
  <outline>
    <contour>
      <point x="200" y="1256" type="line"/>
      <point x="200" y="0" type="line"/>
      <point x="356" y="0" type="line"/>
      <point x="356" y="1068" type="line"/>
      <point x="332" y="1068" type="line"/>
      <point x="992" y="0" type="line"/>
      <point x="1166" y="0" type="line"/>
      <point x="1166" y="1256" type="line"/>
      <point x="1010" y="1256" type="line"/>
      <point x="1010" y="222" type="line"/>
      <point x="1024" y="222" type="line"/>
      <point x="386" y="1256" type="line"/>
    </contour>
  </outline>
</glyph>
<glyph name="O" format="2">
  <advance width="1291"/>
  <unicode hex="004F"/>
  <anchor x="646" y="1270" name="above"/>
  <outline>
    <contour>
      <point x="646" y="-24" type="curve" smooth="yes"/>
      <point x="958" y="-24"/>
      <point x="1190" y="188"/>
      <point x="1190" y="626" type="curve" smooth="yes"/>
      <point x="1190" y="1062"/>
      <point x="958" y="1278"/>
      <point x="646" y="1278" type="curve" smooth="yes"/>
      <point x="334" y="1278"/>
      <point x="102" y="1066"/>
      <point x="102" y="626" type="curve" smooth="yes"/>
      <point x="102" y="192"/>
      <point x="334" y="-24"/>
    </contour>
    <contour>
      <point x="646" y="120" type="curve" smooth="yes"/>
      <point x="412" y="120"/>
      <point x="264" y="294"/>
      <point x="264" y="626" type="curve" smooth="yes"/>
      <point x="264" y="954"/>
      <point x="412" y="1138"/>
      <point x="646" y="1138" type="curve" smooth="yes"/>
      <point x="882" y="1138"/>
      <point x="1028" y="954"/>
      <point x="1028" y="628" type="curve" smooth="yes"/>
      <point x="1028" y="294"/>
      <point x="882" y="120"/>
    </contour>
  </outline>
</glyph>
<glyph name="P" format="2">
  <advance width="1107"/>
  <unicode hex="0050"/>
  <outline>
    <contour>
      <point x="198" y="0" type="line"/>
      <point x="356" y="0" type="line"/>
      <point x="356" y="484" type="line"/>
      <point x="602" y="484" type="line" smooth="yes"/>
      <point x="878" y="484"/>
      <point x="1028" y="632"/>
      <point x="1028" y="868" type="curve" smooth="yes"/>
      <point x="1028" y="1106"/>
      <point x="878" y="1256"/>
      <point x="602" y="1256" type="curve" smooth="yes"/>
      <point x="198" y="1256" type="line"/>
    </contour>
    <contour>
      <point x="356" y="620" type="line"/>
      <point x="356" y="1122" type="line"/>
      <point x="602" y="1122" type="line" smooth="yes"/>
      <point x="776" y="1122"/>
      <point x="868" y="1022"/>
      <point x="868" y="868" type="curve" smooth="yes"/>
      <point x="868" y="716"/>
      <point x="776" y="620"/>
      <point x="602" y="620" type="curve" smooth="yes"/>
    </contour>
  </outline>
</glyph>
<glyph name="Q" format="2">
  <advance width="1303"/>
  <unicode hex="0051"/>
  <outline>
    <contour>
      <point x="646" y="-24" type="curve" smooth="yes"/>
      <point x="958" y="-24"/>
      <point x="1190" y="188"/>
      <point x="1190" y="626" type="curve" smooth="yes"/>
      <point x="1190" y="1062"/>
      <point x="958" y="1278"/>
      <point x="646" y="1278" type="curve" smooth="yes"/>
      <point x="334" y="1278"/>
      <point x="102" y="1066"/>
      <point x="102" y="626" type="curve" smooth="yes"/>
      <point x="102" y="192"/>
      <point x="334" y="-24"/>
    </contour>
    <contour>
      <point x="1022" y="-334" type="curve" smooth="yes"/>
      <point x="1076" y="-334"/>
      <point x="1130" y="-322"/>
      <point x="1190" y="-296" type="curve"/>
      <point x="1190" y="-124" type="line"/>
      <point x="1122" y="-156"/>
      <point x="1066" y="-176"/>
      <point x="996" y="-176" type="curve" smooth="yes"/>
      <point x="950" y="-174"/>
      <point x="902" y="-152"/>
      <point x="858" y="-92" type="curve" smooth="yes"/>
      <point x="742" y="74" type="line"/>
      <point x="602" y="30" type="line"/>
      <point x="732" y="-156" type="line" smooth="yes"/>
      <point x="812" y="-272"/>
      <point x="904" y="-334"/>
    </contour>
    <contour>
      <point x="646" y="120" type="curve" smooth="yes"/>
      <point x="412" y="120"/>
      <point x="264" y="294"/>
      <point x="264" y="626" type="curve" smooth="yes"/>
      <point x="264" y="954"/>
      <point x="412" y="1138"/>
      <point x="646" y="1138" type="curve" smooth="yes"/>
      <point x="882" y="1138"/>
      <point x="1028" y="954"/>
      <point x="1028" y="628" type="curve" smooth="yes"/>
      <point x="1028" y="294"/>
      <point x="882" y="120"/>
    </contour>
  </outline>
</glyph>
<glyph name="R" format="2">
  <advance width="1225"/>
  <unicode hex="0052"/>
  <outline>
    <contour>
      <point x="202" y="0" type="line"/>
      <point x="358" y="0" type="line"/>
      <point x="358" y="514" type="line"/>
      <point x="640" y="514" type="line" smooth="yes"/>
      <point x="926" y="514"/>
      <point x="1076" y="664"/>
      <point x="1076" y="884" type="curve" smooth="yes"/>
      <point x="1076" y="1106"/>
      <point x="926" y="1256"/>
      <point x="640" y="1256" type="curve" smooth="yes"/>
      <point x="202" y="1256" type="line"/>
    </contour>
    <contour>
      <point x="906" y="0" type="line"/>
      <point x="1108" y="0" type="line"/>
      <point x="716" y="570" type="line"/>
      <point x="546" y="570" type="line"/>
    </contour>
    <contour>
      <point x="358" y="624" type="line"/>
      <point x="358" y="1122" type="line"/>
      <point x="640" y="1122" type="line" smooth="yes"/>
      <point x="820" y="1122"/>
      <point x="916" y="1026"/>
      <point x="916" y="874" type="curve" smooth="yes"/>
      <point x="916" y="726"/>
      <point x="816" y="624"/>
      <point x="628" y="624" type="curve" smooth="yes"/>
    </contour>
  </outline>
</glyph>
<glyph name="S" format="2">
  <advance width="1209"/>
  <unicode hex="0053"/>
  <outline>
    <contour>
      <point x="604" y="-24" type="curve" smooth="yes"/>
      <point x="906" y="-24"/>
      <point x="1070" y="134"/>
      <point x="1070" y="334" type="curve" smooth="yes"/>
      <point x="1070" y="506"/>
      <point x="958" y="610"/>
      <point x="778" y="670" type="curve" smooth="yes"/>
      <point x="518" y="760" type="line" smooth="yes"/>
      <point x="394" y="802"/>
      <point x="338" y="850"/>
      <point x="338" y="942" type="curve" smooth="yes"/>
      <point x="338" y="1054"/>
      <point x="434" y="1136"/>
      <point x="600" y="1136" type="curve" smooth="yes"/>
      <point x="762" y="1136"/>
      <point x="850" y="1068"/>
      <point x="870" y="952" type="curve"/>
      <point x="1024" y="952" type="line"/>
      <point x="1002" y="1150"/>
      <point x="856" y="1278"/>
      <point x="600" y="1278" type="curve" smooth="yes"/>
      <point x="324" y="1278"/>
      <point x="168" y="1142"/>
      <point x="168" y="948" type="curve" smooth="yes"/>
      <point x="168" y="774"/>
      <point x="276" y="692"/>
      <point x="484" y="618" type="curve" smooth="yes"/>
      <point x="706" y="540" type="line" smooth="yes"/>
      <point x="834" y="498"/>
      <point x="900" y="436"/>
      <point x="900" y="330" type="curve" smooth="yes"/>
      <point x="900" y="216"/>
      <point x="784" y="120"/>
      <point x="602" y="120" type="curve" smooth="yes"/>
      <point x="434" y="120"/>
      <point x="290" y="200"/>
      <point x="290" y="376" type="curve"/>
      <point x="138" y="376" type="line"/>
      <point x="142" y="114"/>
      <point x="352" y="-24"/>
    </contour>
  </outline>
</glyph>
<glyph name="T" format="2">
  <advance width="1001"/>
  <unicode hex="0054"/>
  <outline>
    <contour>
      <point x="12" y="1122" type="line"/>
      <point x="422" y="1122" type="line"/>
      <point x="422" y="0" type="line"/>
      <point x="578" y="0" type="line"/>
      <point x="578" y="1122" type="line"/>
      <point x="990" y="1122" type="line"/>
      <point x="990" y="1256" type="line"/>
      <point x="12" y="1256" type="line"/>
    </contour>
  </outline>
</glyph>
<glyph name="U" format="2">
  <advance width="1306"/>
  <unicode hex="0055"/>
  <anchor x="652" y="1270" name="above"/>
  <outline>
    <contour>
      <point x="174" y="1256" type="line"/>
      <point x="174" y="454" type="line" smooth="yes"/>
      <point x="174" y="138"/>
      <point x="362" y="-24"/>
      <point x="652" y="-24" type="curve" smooth="yes"/>
      <point x="942" y="-24"/>
      <point x="1128" y="138"/>
      <point x="1128" y="454" type="curve" smooth="yes"/>
      <point x="1128" y="1256" type="line"/>
      <point x="972" y="1256" type="line"/>
      <point x="972" y="454" type="line" smooth="yes"/>
      <point x="972" y="218"/>
      <point x="842" y="120"/>
      <point x="652" y="120" type="curve" smooth="yes"/>
      <point x="460" y="120"/>
      <point x="330" y="218"/>
      <point x="330" y="454" type="curve" smooth="yes"/>
      <point x="330" y="1256" type="line"/>
    </contour>
  </outline>
</glyph>
<glyph name="V" format="2">
  <advance width="1125"/>
  <unicode hex="0056"/>
  <outline>
    <contour>
      <point x="552" y="166" type="line"/>
      <point x="572" y="166" type="line"/>
      <point x="202" y="1256" type="line"/>
      <point x="36" y="1256" type="line"/>
      <point x="480" y="0" type="line"/>
      <point x="642" y="0" type="line"/>
      <point x="1090" y="1256" type="line"/>
      <point x="924" y="1256" type="line"/>
    </contour>
  </outline>
</glyph>
<glyph name="W" format="2">
  <advance width="1788"/>
  <unicode hex="0057"/>
  <outline>
    <contour>
      <point x="28" y="1256" type="line"/>
      <point x="426" y="0" type="line"/>
      <point x="590" y="0" type="line"/>
      <point x="890" y="852" type="line"/>
      <point x="860" y="852" type="line"/>
      <point x="1150" y="0" type="line"/>
      <point x="1314" y="0" type="line"/>
      <point x="1758" y="1256" type="line"/>
      <point x="1584" y="1256" type="line"/>
      <point x="1210" y="146" type="line"/>
      <point x="1254" y="146" type="line"/>
      <point x="924" y="1126" type="line"/>
      <point x="818" y="1126" type="line"/>
      <point x="484" y="138" type="line"/>
      <point x="530" y="138" type="line"/>
      <point x="204" y="1256" type="line"/>
    </contour>
  </outline>
</glyph>
<glyph name="X" format="2">
  <advance width="1283"/>
  <unicode hex="0058"/>
  <outline>
    <contour>
      <point x="98" y="0" type="line"/>
      <point x="286" y="0" type="line"/>
      <point x="626" y="502" type="line"/>
      <point x="990" y="0" type="line"/>
      <point x="1182" y="0" type="line"/>
      <point x="730" y="626" type="line"/>
      <point x="1166" y="1256" type="line"/>
      <point x="976" y="1256" type="line"/>
      <point x="644" y="744" type="line"/>
      <point x="282" y="1256" type="line"/>
      <point x="94" y="1256" type="line"/>
      <point x="540" y="624" type="line"/>
    </contour>
  </outline>
</glyph>
<glyph name="Y" format="2">
  <advance width="1097"/>
  <unicode hex="0059"/>
  <outline>
    <contour>
      <point x="18" y="1256" type="line"/>
      <point x="466" y="516" type="line"/>
      <point x="466" y="0" type="line"/>
      <point x="624" y="0" type="line"/>
      <point x="624" y="516" type="line"/>
      <point x="1078" y="1256" type="line"/>
      <point x="892" y="1256" type="line"/>
      <point x="526" y="646" type="line"/>
      <point x="566" y="646" type="line"/>
      <point x="206" y="1256" type="line"/>
    </contour>
  </outline>
</glyph>
<glyph name="Z" format="2">
  <advance width="1183"/>
  <unicode hex="005A"/>
  <outline>
    <contour>
      <point x="146" y="0" type="line"/>
      <point x="1068" y="0" type="line"/>
      <point x="1068" y="142" type="line"/>
      <point x="310" y="148" type="line"/>
      <point x="322" y="122" type="line"/>
      <point x="1068" y="1116" type="line"/>
      <point x="1068" y="1256" type="line"/>
      <point x="146" y="1256" type="line"/>
      <point x="146" y="1114" type="line"/>
      <point x="916" y="1108" type="line"/>
      <point x="916" y="1166" type="line"/>
      <point x="146" y="140" type="line"/>
    </contour>
  </outline>
</glyph>
<glyph name="bracketleft" format="2">
  <advance width="632"/>
  <unicode hex="005B"/>
  <outline>
    <contour>
      <point x="202" y="-202" type="line"/>
      <point x="596" y="-202" type="line"/>
      <point x="596" y="-64" type="line"/>
      <point x="358" y="-64" type="line"/>
      <point x="358" y="1322" type="line"/>
      <point x="596" y="1322" type="line"/>
      <point x="596" y="1460" type="line"/>
      <point x="202" y="1460" type="line"/>
    </contour>
  </outline>
</glyph>
<glyph name="asciicircum" format="2">
  <advance width="892"/>
  <unicode hex="005E"/>
  <outline>
    <contour>
      <point x="42" y="490" type="line"/>
      <point x="218" y="490" type="line"/>
      <point x="482" y="1046" type="line"/>
      <point x="424" y="1046" type="line"/>
      <point x="690" y="490" type="line"/>
      <point x="864" y="490" type="line"/>
      <point x="514" y="1172" type="line"/>
      <point x="392" y="1172" type="line"/>
    </contour>
  </outline>
</glyph>
<glyph name="grave" format="2">
  <advance width="627"/>
  <unicode hex="0060"/>
  <anchor x="314" y="1270" name="_above"/>
  <outline>
    <contour>
      <point x="48" y="1580" type="line"/>
      <point x="536" y="1354" type="line"/>
      <point x="582" y="1452" type="line"/>
      <point x="112" y="1718" type="line"/>
    </contour>
  </outline>
</glyph>
<glyph name="a" format="2">
  <advance width="1101"/>
  <unicode hex="0061"/>
  <anchor x="562" y="1012" name="above"/>
  <outline>
    <contour>
      <point x="794" y="0" type="line"/>
      <point x="930" y="0" type="line"/>
      <point x="930" y="616" type="line" smooth="yes"/>
      <point x="930" y="874"/>
      <point x="774" y="980"/>
      <point x="554" y="980" type="curve" smooth="yes"/>
      <point x="324" y="980"/>
      <point x="158" y="900"/>
      <point x="158" y="692" type="curve"/>
      <point x="332" y="692" type="line"/>
      <point x="332" y="810"/>
      <point x="430" y="862"/>
      <point x="554" y="862" type="curve" smooth="yes"/>
      <point x="700" y="862"/>
      <point x="774" y="792"/>
      <point x="774" y="620" type="curve" smooth="yes"/>
      <point x="774" y="210" type="line"/>
    </contour>
    <contour>
      <point x="468" y="-24" type="curve" smooth="yes"/>
      <point x="682" y="-24"/>
      <point x="812" y="144"/>
      <point x="812" y="336" type="curve"/>
      <point x="774" y="336" type="line"/>
      <point x="774" y="226"/>
      <point x="654" y="98"/>
      <point x="498" y="98" type="curve" smooth="yes"/>
      <point x="350" y="98"/>
      <point x="286" y="174"/>
      <point x="286" y="268" type="curve" smooth="yes"/>
      <point x="286" y="394"/>
      <point x="386" y="442"/>
      <point x="514" y="442" type="curve" smooth="yes"/>
      <point x="598" y="442"/>
      <point x="708" y="422"/>
      <point x="788" y="390" type="curve"/>
      <point x="788" y="488" type="line"/>
      <point x="692" y="522"/>
      <point x="590" y="544"/>
      <point x="490" y="544" type="curve" smooth="yes"/>
      <point x="280" y="544"/>
      <point x="120" y="462"/>
      <point x="120" y="268" type="curve" smooth="yes"/>
      <point x="120" y="120"/>
      <point x="232" y="-24"/>
    </contour>
  </outline>
</glyph>
<glyph name="b" format="2">
  <advance width="1185"/>
  <unicode hex="0062"/>
  <outline>
    <contour>
      <point x="640" y="-24" type="curve" smooth="yes"/>
      <point x="872" y="-24"/>
      <point x="1066" y="174"/>
      <point x="1066" y="482" type="curve" smooth="yes"/>
      <point x="1066" y="788"/>
      <point x="876" y="980"/>
      <point x="650" y="980" type="curve" smooth="yes"/>
      <point x="440" y="980"/>
      <point x="298" y="822"/>
      <point x="298" y="550" type="curve"/>
      <point x="358" y="550" type="line"/>
      <point x="358" y="740"/>
      <point x="486" y="842"/>
      <point x="622" y="842" type="curve" smooth="yes"/>
      <point x="780" y="842"/>
      <point x="906" y="706"/>
      <point x="906" y="482" type="curve" smooth="yes"/>
      <point x="906" y="254"/>
      <point x="778" y="116"/>
      <point x="624" y="116" type="curve" smooth="yes"/>
      <point x="490" y="116"/>
      <point x="358" y="222"/>
      <point x="358" y="408" type="curve"/>
      <point x="298" y="408" type="line"/>
      <point x="298" y="130"/>
      <point x="448" y="-24"/>
    </contour>
    <contour>
      <point x="202" y="0" type="line"/>
      <point x="312" y="0" type="line"/>
      <point x="358" y="224" type="line"/>
      <point x="358" y="1364" type="line"/>
      <point x="202" y="1364" type="line"/>
    </contour>
  </outline>
</glyph>
<glyph name="c" format="2">
  <advance width="1032"/>
  <unicode hex="0063"/>
  <outline>
    <contour>
      <point x="538" y="-24" type="curve" smooth="yes"/>
      <point x="772" y="-24"/>
      <point x="922" y="122"/>
      <point x="922" y="322" type="curve"/>
      <point x="762" y="322" type="line"/>
      <point x="762" y="192"/>
      <point x="684" y="116"/>
      <point x="536" y="116" type="curve" smooth="yes"/>
      <point x="378" y="116"/>
      <point x="262" y="258"/>
      <point x="262" y="480" type="curve" smooth="yes"/>
      <point x="262" y="720"/>
      <point x="394" y="842"/>
      <point x="536" y="842" type="curve" smooth="yes"/>
      <point x="648" y="842"/>
      <point x="728" y="772"/>
      <point x="762" y="662" type="curve"/>
      <point x="922" y="676" type="line"/>
      <point x="882" y="836"/>
      <point x="754" y="980"/>
      <point x="538" y="980" type="curve" smooth="yes"/>
      <point x="308" y="980"/>
      <point x="102" y="796"/>
      <point x="102" y="480" type="curve" smooth="yes"/>
      <point x="102" y="172"/>
      <point x="308" y="-24"/>
    </contour>
  </outline>
</glyph>
<glyph name="d" format="2">
  <advance width="1185"/>
  <unicode hex="0064"/>
  <outline>
    <contour>
      <point x="544" y="-24" type="curve" smooth="yes"/>
      <point x="736" y="-24"/>
      <point x="886" y="130"/>
      <point x="886" y="408" type="curve"/>
      <point x="826" y="408" type="line"/>
      <point x="826" y="222"/>
      <point x="692" y="116"/>
      <point x="562" y="116" type="curve" smooth="yes"/>
      <point x="406" y="116"/>
      <point x="278" y="254"/>
      <point x="278" y="482" type="curve" smooth="yes"/>
      <point x="278" y="706"/>
      <point x="406" y="842"/>
      <point x="562" y="842" type="curve" smooth="yes"/>
      <point x="700" y="842"/>
      <point x="826" y="740"/>
      <point x="826" y="550" type="curve"/>
      <point x="886" y="550" type="line"/>
      <point x="886" y="822"/>
      <point x="744" y="980"/>
      <point x="534" y="980" type="curve" smooth="yes"/>
      <point x="308" y="980"/>
      <point x="118" y="788"/>
      <point x="118" y="482" type="curve" smooth="yes"/>
      <point x="118" y="174"/>
      <point x="312" y="-24"/>
    </contour>
    <contour>
      <point x="852" y="0" type="line"/>
      <point x="982" y="0" type="line"/>
      <point x="982" y="1364" type="line"/>
      <point x="826" y="1364" type="line"/>
      <point x="826" y="224" type="line"/>
    </contour>
  </outline>
</glyph>
<glyph name="e" format="2">
  <advance width="1027"/>
  <unicode hex="0065"/>
  <anchor x="520" y="1012" name="above"/>
  <outline>
    <contour>
      <point x="534" y="-24" type="curve" smooth="yes"/>
      <point x="740" y="-24"/>
      <point x="892" y="92"/>
      <point x="922" y="282" type="curve"/>
      <point x="760" y="282" type="line"/>
      <point x="742" y="164"/>
      <point x="658" y="104"/>
      <point x="534" y="104" type="curve" smooth="yes"/>
      <point x="348" y="104"/>
      <point x="258" y="254"/>
      <point x="258" y="454" type="curve" smooth="yes"/>
      <point x="258" y="518" type="line" smooth="yes"/>
      <point x="258" y="696"/>
      <point x="352" y="854"/>
      <point x="536" y="854" type="curve" smooth="yes"/>
      <point x="730" y="854"/>
      <point x="779" y="674"/>
      <point x="771" y="518" type="curve"/>
      <point x="817" y="548" type="line"/>
      <point x="228" y="548" type="line"/>
      <point x="228" y="452" type="line"/>
      <point x="920" y="452" type="line"/>
      <point x="942" y="722"/>
      <point x="824" y="980"/>
      <point x="534" y="980" type="curve" smooth="yes"/>
      <point x="284" y="980"/>
      <point x="102" y="790"/>
      <point x="102" y="476" type="curve" smooth="yes"/>
      <point x="102" y="182"/>
      <point x="286" y="-24"/>
    </contour>
  </outline>
</glyph>
<glyph name="f" format="2">
  <advance width="685"/>
  <unicode hex="0066"/>
  <outline>
    <contour>
      <point x="254" y="0" type="line"/>
      <point x="410" y="0" type="line"/>
      <point x="410" y="1102" type="line" smooth="yes"/>
      <point x="410" y="1226"/>
      <point x="484" y="1254"/>
      <point x="548" y="1254" type="curve" smooth="yes"/>
      <point x="584" y="1254"/>
      <point x="624" y="1246"/>
      <point x="664" y="1230" type="curve"/>
      <point x="694" y="1354" type="line"/>
      <point x="638" y="1370"/>
      <point x="580" y="1378"/>
      <point x="526" y="1378" type="curve" smooth="yes"/>
      <point x="374" y="1378"/>
      <point x="254" y="1294"/>
      <point x="254" y="1104" type="curve" smooth="yes"/>
    </contour>
    <contour>
      <point x="98" y="848" type="line"/>
      <point x="608" y="848" type="line"/>
      <point x="608" y="956" type="line"/>
      <point x="98" y="956" type="line"/>
    </contour>
  </outline>
</glyph>
<glyph name="g" format="2">
  <advance width="1129"/>
  <unicode hex="0067"/>
  <outline>
    <contour>
      <point x="540" y="-492" type="curve" smooth="yes"/>
      <point x="888" y="-492"/>
      <point x="1098" y="-302"/>
      <point x="1098" y="-114" type="curve" smooth="yes"/>
      <point x="1098" y="22"/>
      <point x="988" y="102"/>
      <point x="808" y="102" type="curve" smooth="yes"/>
      <point x="436" y="102" type="line" smooth="yes"/>
      <point x="302" y="102"/>
      <point x="260" y="148"/>
      <point x="260" y="210" type="curve" smooth="yes"/>
      <point x="260" y="290"/>
      <point x="332" y="330"/>
      <point x="392" y="330" type="curve"/>
      <point x="362" y="388" type="line"/>
      <point x="236" y="388"/>
      <point x="122" y="320"/>
      <point x="122" y="200" type="curve" smooth="yes"/>
      <point x="122" y="86"/>
      <point x="242" y="-12"/>
      <point x="436" y="-12" type="curve" smooth="yes"/>
      <point x="808" y="-12" type="line" smooth="yes"/>
      <point x="898" y="-12"/>
      <point x="942" y="-62"/>
      <point x="942" y="-122" type="curve" smooth="yes"/>
      <point x="942" y="-250"/>
      <point x="780" y="-366"/>
      <point x="540" y="-366" type="curve" smooth="yes"/>
      <point x="324" y="-366"/>
      <point x="210" y="-284"/>
      <point x="210" y="-180" type="curve" smooth="yes"/>
      <point x="210" y="-76"/>
      <point x="292" y="-12"/>
      <point x="436" y="-12" type="curve"/>
      <point x="350" y="42" type="line"/>
      <point x="178" y="42"/>
      <point x="58" y="-38"/>
      <point x="58" y="-186" type="curve" smooth="yes"/>
      <point x="58" y="-354"/>
      <point x="246" y="-492"/>
    </contour>
    <contour>
      <point x="568" y="280" type="curve" smooth="yes"/>
      <point x="782" y="280"/>
      <point x="954" y="422"/>
      <point x="954" y="630" type="curve" smooth="yes"/>
      <point x="954" y="840"/>
      <point x="782" y="980"/>
      <point x="568" y="980" type="curve" smooth="yes"/>
      <point x="348" y="980"/>
      <point x="178" y="840"/>
      <point x="178" y="630" type="curve" smooth="yes"/>
      <point x="178" y="422"/>
      <point x="348" y="280"/>
    </contour>
    <contour>
      <point x="568" y="392" type="curve" smooth="yes"/>
      <point x="422" y="392"/>
      <point x="334" y="494"/>
      <point x="334" y="630" type="curve" smooth="yes"/>
      <point x="334" y="770"/>
      <point x="422" y="866"/>
      <point x="568" y="866" type="curve" smooth="yes"/>
      <point x="714" y="866"/>
      <point x="800" y="770"/>
      <point x="800" y="630" type="curve" smooth="yes"/>
      <point x="800" y="494"/>
      <point x="714" y="392"/>
    </contour>
    <contour>
      <point x="882" y="828" type="line"/>
      <point x="882" y="936"/>
      <point x="948" y="986"/>
      <point x="1068" y="986" type="curve"/>
      <point x="1080" y="1140" type="line"/>
      <point x="912" y="1140"/>
      <point x="808" y="1026"/>
      <point x="808" y="858" type="curve"/>
    </contour>
  </outline>
</glyph>
<glyph name="h" format="2">
  <advance width="1207"/>
  <unicode hex="0068"/>
  <outline>
    <contour>
      <point x="882" y="0" type="line"/>
      <point x="1036" y="0" type="line"/>
      <point x="1036" y="562" type="line" smooth="yes"/>
      <point x="1036" y="820"/>
      <point x="902" y="980"/>
      <point x="676" y="980" type="curve" smooth="yes"/>
      <point x="434" y="980"/>
      <point x="298" y="786"/>
      <point x="298" y="452" type="curve"/>
      <point x="358" y="452" type="line"/>
      <point x="358" y="694"/>
      <point x="466" y="842"/>
      <point x="638" y="842" type="curve" smooth="yes"/>
      <point x="788" y="842"/>
      <point x="882" y="744"/>
      <point x="882" y="562" type="curve" smooth="yes"/>
    </contour>
    <contour>
      <point x="202" y="0" type="line"/>
      <point x="358" y="0" type="line"/>
      <point x="358" y="1364" type="line"/>
      <point x="202" y="1364" type="line"/>
    </contour>
  </outline>
</glyph>
<glyph name="i" format="2">
  <advance width="596"/>
  <unicode hex="0069"/>
  <outline>
    <contour>
      <point x="212" y="0" type="line"/>
      <point x="368" y="0" type="line"/>
      <point x="368" y="958" type="line"/>
      <point x="212" y="958" type="line"/>
    </contour>
    <contour>
      <point x="290" y="1182" type="curve" smooth="yes"/>
      <point x="354" y="1182"/>
      <point x="394" y="1222"/>
      <point x="394" y="1282" type="curve" smooth="yes"/>
      <point x="394" y="1340"/>
      <point x="354" y="1378"/>
      <point x="290" y="1378" type="curve" smooth="yes"/>
      <point x="226" y="1378"/>
      <point x="186" y="1340"/>
      <point x="186" y="1282" type="curve" smooth="yes"/>
      <point x="186" y="1222"/>
      <point x="226" y="1182"/>
    </contour>
  </outline>
</glyph>
<glyph name="j" format="2">
  <advance width="627"/>
  <unicode hex="006A"/>
  <outline>
    <contour>
      <point x="96" y="-492" type="curve" smooth="yes"/>
      <point x="276" y="-492"/>
      <point x="398" y="-390"/>
      <point x="398" y="-136" type="curve" smooth="yes"/>
      <point x="398" y="960" type="line"/>
      <point x="244" y="960" type="line"/>
      <point x="244" y="-134" type="line"/>
      <point x="244" y="-286"/>
      <point x="180" y="-356"/>
      <point x="68" y="-356" type="curve" smooth="yes"/>
      <point x="-12" y="-356"/>
      <point x="-86" y="-326"/>
      <point x="-164" y="-282" type="curve"/>
      <point x="-172" y="-418" type="line"/>
      <point x="-80" y="-468"/>
      <point x="4" y="-492"/>
    </contour>
    <contour>
      <point x="320" y="1182" type="curve" smooth="yes"/>
      <point x="384" y="1182"/>
      <point x="424" y="1222"/>
      <point x="424" y="1282" type="curve" smooth="yes"/>
      <point x="424" y="1340"/>
      <point x="384" y="1378"/>
      <point x="320" y="1378" type="curve" smooth="yes"/>
      <point x="256" y="1378"/>
      <point x="218" y="1340"/>
      <point x="218" y="1282" type="curve" smooth="yes"/>
      <point x="218" y="1222"/>
      <point x="256" y="1182"/>
    </contour>
  </outline>
</glyph>
<glyph name="k" format="2">
  <advance width="1127"/>
  <unicode hex="006B"/>
  <outline>
    <contour>
      <point x="202" y="0" type="line"/>
      <point x="358" y="0" type="line"/>
      <point x="358" y="1364" type="line"/>
      <point x="202" y="1364" type="line"/>
    </contour>
    <contour>
      <point x="334" y="548" type="line"/>
      <point x="334" y="382" type="line"/>
      <point x="1040" y="956" type="line"/>
      <point x="822" y="956" type="line"/>
    </contour>
    <contour>
      <point x="870" y="0" type="line"/>
      <point x="1062" y="0" type="line"/>
      <point x="574" y="632" type="line"/>
      <point x="416" y="604" type="line"/>
    </contour>
  </outline>
</glyph>
<glyph name="l" format="2">
  <advance width="560"/>
  <unicode hex="006C"/>
  <outline>
    <contour>
      <point x="202" y="0" type="line"/>
      <point x="358" y="0" type="line"/>
      <point x="358" y="1364" type="line"/>
      <point x="202" y="1364" type="line"/>
    </contour>
  </outline>
</glyph>
<glyph name="m" format="2">
  <advance width="1871"/>
  <unicode hex="006D"/>
  <outline>
    <contour>
      <point x="1546" y="0" type="line"/>
      <point x="1702" y="0" type="line"/>
      <point x="1702" y="562" type="line" smooth="yes"/>
      <point x="1702" y="820"/>
      <point x="1568" y="980"/>
      <point x="1342" y="980" type="curve" smooth="yes"/>
      <point x="1104" y="980"/>
      <point x="964" y="808"/>
      <point x="964" y="464" type="curve"/>
      <point x="1036" y="464" type="line"/>
      <point x="1036" y="700"/>
      <point x="1130" y="842"/>
      <point x="1304" y="842" type="curve" smooth="yes"/>
      <point x="1452" y="842"/>
      <point x="1546" y="744"/>
      <point x="1546" y="562" type="curve" smooth="yes"/>
    </contour>
    <contour>
      <point x="202" y="0" type="line"/>
      <point x="358" y="0" type="line"/>
      <point x="358" y="452" type="line" smooth="yes"/>
      <point x="358" y="694"/>
      <point x="466" y="842"/>
      <point x="638" y="842" type="curve" smooth="yes"/>
      <point x="788" y="842"/>
      <point x="882" y="744"/>
      <point x="882" y="562" type="curve" smooth="yes"/>
      <point x="882" y="0" type="line"/>
      <point x="1036" y="0" type="line"/>
      <point x="1036" y="562" type="line" smooth="yes"/>
      <point x="1036" y="820"/>
      <point x="902" y="980"/>
      <point x="676" y="980" type="curve" smooth="yes"/>
      <point x="524" y="980"/>
      <point x="414" y="902"/>
      <point x="354" y="764" type="curve"/>
      <point x="336" y="956" type="line"/>
      <point x="202" y="956" type="line"/>
    </contour>
  </outline>
</glyph>
<glyph name="o" format="2">
  <advance width="1093"/>
  <unicode hex="006F"/>
  <anchor x="548" y="1012" name="above"/>
  <outline>
    <contour>
      <point x="548" y="-24" type="curve" smooth="yes"/>
      <point x="804" y="-24"/>
      <point x="992" y="150"/>
      <point x="992" y="478" type="curve" smooth="yes"/>
      <point x="992" y="808"/>
      <point x="804" y="980"/>
      <point x="548" y="980" type="curve" smooth="yes"/>
      <point x="290" y="980"/>
      <point x="102" y="808"/>
      <point x="102" y="478" type="curve" smooth="yes"/>
      <point x="102" y="150"/>
      <point x="290" y="-24"/>
    </contour>
    <contour>
      <point x="544" y="112" type="curve" smooth="yes"/>
      <point x="358" y="112"/>
      <point x="262" y="252"/>
      <point x="262" y="478" type="curve" smooth="yes"/>
      <point x="262" y="706"/>
      <point x="364" y="846"/>
      <point x="552" y="846" type="curve" smooth="yes"/>
      <point x="738" y="846"/>
      <point x="834" y="706"/>
      <point x="834" y="478" type="curve" smooth="yes"/>
      <point x="834" y="252"/>
      <point x="730" y="112"/>
    </contour>
  </outline>
</glyph>
<glyph name="p" format="2">
  <advance width="1169"/>
  <unicode hex="0070"/>
  <outline>
    <contour>
      <point x="636" y="-24" type="curve" smooth="yes"/>
      <point x="862" y="-24"/>
      <point x="1066" y="164"/>
      <point x="1066" y="480" type="curve" smooth="yes"/>
      <point x="1066" y="792"/>
      <point x="864" y="980"/>
      <point x="640" y="980" type="curve" smooth="yes"/>
      <point x="444" y="980"/>
      <point x="292" y="834"/>
      <point x="292" y="556" type="curve"/>
      <point x="358" y="556" type="line"/>
      <point x="358" y="742"/>
      <point x="484" y="842"/>
      <point x="620" y="842" type="curve" smooth="yes"/>
      <point x="778" y="842"/>
      <point x="906" y="708"/>
      <point x="906" y="480" type="curve" smooth="yes"/>
      <point x="906" y="242"/>
      <point x="762" y="116"/>
      <point x="618" y="116" type="curve" smooth="yes"/>
      <point x="484" y="116"/>
      <point x="358" y="212"/>
      <point x="358" y="390" type="curve"/>
      <point x="292" y="390" type="line"/>
      <point x="292" y="124"/>
      <point x="426" y="-24"/>
    </contour>
    <contour>
      <point x="202" y="-470" type="line"/>
      <point x="358" y="-470" type="line"/>
      <point x="358" y="732" type="line"/>
      <point x="332" y="956" type="line"/>
      <point x="202" y="956" type="line"/>
    </contour>
  </outline>
</glyph>
<glyph name="q" format="2">
  <advance width="1169"/>
  <unicode hex="0071"/>
  <outline>
    <contour>
      <point x="534" y="-24" type="curve" smooth="yes"/>
      <point x="742" y="-24"/>
      <point x="856" y="142"/>
      <point x="856" y="390" type="curve"/>
      <point x="810" y="390" type="line"/>
      <point x="810" y="210"/>
      <point x="682" y="116"/>
      <point x="550" y="116" type="curve" smooth="yes"/>
      <point x="404" y="116"/>
      <point x="262" y="242"/>
      <point x="262" y="480" type="curve" smooth="yes"/>
      <point x="262" y="708"/>
      <point x="392" y="842"/>
      <point x="548" y="842" type="curve" smooth="yes"/>
      <point x="684" y="842"/>
      <point x="810" y="742"/>
      <point x="810" y="556" type="curve"/>
      <point x="878" y="556" type="line"/>
      <point x="878" y="834"/>
      <point x="724" y="980"/>
      <point x="528" y="980" type="curve" smooth="yes"/>
      <point x="306" y="980"/>
      <point x="102" y="792"/>
      <point x="102" y="480" type="curve" smooth="yes"/>
      <point x="102" y="164"/>
      <point x="306" y="-24"/>
    </contour>
    <contour>
      <point x="1058" y="-492" type="curve"/>
      <point x="1110" y="-372" type="line"/>
      <point x="998" y="-334"/>
      <point x="964" y="-298"/>
      <point x="964" y="-162" type="curve" smooth="yes"/>
      <point x="964" y="956" type="line"/>
      <point x="858" y="956" type="line"/>
      <point x="810" y="732" type="line"/>
      <point x="810" y="-152" type="line" smooth="yes"/>
      <point x="810" y="-344"/>
      <point x="876" y="-442"/>
    </contour>
  </outline>
</glyph>
<glyph name="r" format="2">
  <advance width="723"/>
  <unicode hex="0072"/>
  <outline>
    <contour>
      <point x="202" y="0" type="line"/>
      <point x="358" y="0" type="line"/>
      <point x="358" y="958" type="line"/>
      <point x="202" y="958" type="line"/>
    </contour>
    <contour>
      <point x="310" y="432" type="curve"/>
      <point x="358" y="432" type="line"/>
      <point x="358" y="670"/>
      <point x="424" y="824"/>
      <point x="594" y="824" type="curve" smooth="yes"/>
      <point x="628" y="824"/>
      <point x="676" y="814"/>
      <point x="714" y="802" type="curve"/>
      <point x="724" y="956" type="line"/>
      <point x="688" y="968"/>
      <point x="654" y="974"/>
      <point x="612" y="974" type="curve" smooth="yes"/>
      <point x="418" y="974"/>
      <point x="310" y="796"/>
    </contour>
  </outline>
</glyph>
<glyph name="s" format="2">
  <advance width="1051"/>
  <unicode hex="0073"/>
  <outline>
    <contour>
      <point x="546" y="-24" type="curve" smooth="yes"/>
      <point x="782" y="-24"/>
      <point x="930" y="112"/>
      <point x="930" y="256" type="curve" smooth="yes"/>
      <point x="930" y="380"/>
      <point x="840" y="456"/>
      <point x="676" y="506" type="curve" smooth="yes"/>
      <point x="486" y="570" type="line" smooth="yes"/>
      <point x="370" y="602"/>
      <point x="316" y="648"/>
      <point x="316" y="716" type="curve" smooth="yes"/>
      <point x="316" y="786"/>
      <point x="392" y="856"/>
      <point x="522" y="856" type="curve" smooth="yes"/>
      <point x="656" y="856"/>
      <point x="730" y="812"/>
      <point x="742" y="728" type="curve"/>
      <point x="896" y="728" type="line"/>
      <point x="890" y="872"/>
      <point x="756" y="980"/>
      <point x="522" y="980" type="curve" smooth="yes"/>
      <point x="300" y="980"/>
      <point x="152" y="878"/>
      <point x="152" y="724" type="curve" smooth="yes"/>
      <point x="152" y="600"/>
      <point x="240" y="510"/>
      <point x="402" y="460" type="curve" smooth="yes"/>
      <point x="588" y="400" type="line" smooth="yes"/>
      <point x="708" y="368"/>
      <point x="760" y="330"/>
      <point x="760" y="256" type="curve" smooth="yes"/>
      <point x="760" y="168"/>
      <point x="656" y="102"/>
      <point x="532" y="102" type="curve" smooth="yes"/>
      <point x="374" y="102"/>
      <point x="278" y="162"/>
      <point x="272" y="284" type="curve"/>
      <point x="122" y="284" type="line"/>
      <point x="128" y="104"/>
      <point x="268" y="-24"/>
    </contour>
  </outline>
</glyph>
<glyph name="t" format="2">
  <advance width="752"/>
  <unicode hex="0074"/>
  <outline>
    <contour>
      <point x="496" y="-24" type="curve" smooth="yes"/>
      <point x="568" y="-24"/>
      <point x="634" y="-4"/>
      <point x="702" y="26" type="curve"/>
      <point x="680" y="138" type="line"/>
      <point x="616" y="114"/>
      <point x="568" y="102"/>
      <point x="514" y="102" type="curve" smooth="yes"/>
      <point x="424" y="102"/>
      <point x="376" y="150"/>
      <point x="376" y="250" type="curve" smooth="yes"/>
      <point x="376" y="1222" type="line"/>
      <point x="222" y="1222" type="line"/>
      <point x="222" y="246" type="line" smooth="yes"/>
      <point x="222" y="66"/>
      <point x="340" y="-24"/>
    </contour>
    <contour>
      <point x="68" y="848" type="line"/>
      <point x="678" y="848" type="line"/>
      <point x="678" y="956" type="line"/>
      <point x="68" y="956" type="line"/>
    </contour>
  </outline>
</glyph>
<glyph name="u" format="2">
  <advance width="1211"/>
  <unicode hex="0075"/>
  <anchor x="602" y="1012" name="above"/>
  <outline>
    <contour>
      <point x="852" y="958" type="line"/>
      <point x="852" y="0" type="line"/>
      <point x="1008" y="0" type="line"/>
      <point x="1008" y="958" type="line"/>
    </contour>
    <contour>
      <point x="174" y="958" type="line"/>
      <point x="174" y="350" type="line" smooth="yes"/>
      <point x="174" y="100"/>
      <point x="318" y="-18"/>
      <point x="534" y="-18" type="curve" smooth="yes"/>
      <point x="762" y="-18"/>
      <point x="910" y="170"/>
      <point x="910" y="492" type="curve"/>
      <point x="852" y="492" type="line"/>
      <point x="852" y="274"/>
      <point x="736" y="118"/>
      <point x="556" y="118" type="curve" smooth="yes"/>
      <point x="410" y="118"/>
      <point x="330" y="202"/>
      <point x="330" y="362" type="curve" smooth="yes"/>
      <point x="330" y="958" type="line"/>
    </contour>
  </outline>
</glyph>
<glyph name="v" format="2">
  <advance width="1005"/>
  <unicode hex="0076"/>
  <outline>
    <contour>
      <point x="36" y="956" type="line"/>
      <point x="418" y="0" type="line"/>
      <point x="588" y="0" type="line"/>
      <point x="970" y="956" type="line"/>
      <point x="792" y="956" type="line"/>
      <point x="492" y="134" type="line"/>
      <point x="514" y="134" type="line"/>
      <point x="214" y="956" type="line"/>
    </contour>
  </outline>
</glyph>
<glyph name="w" format="2">
  <advance width="1449"/>
  <unicode hex="0077"/>
  <outline>
    <contour>
      <point x="36" y="956" type="line"/>
      <point x="352" y="0" type="line"/>
      <point x="504" y="0" type="line"/>
      <point x="734" y="706" type="line"/>
      <point x="710" y="706" type="line"/>
      <point x="942" y="0" type="line"/>
      <point x="1094" y="0" type="line"/>
      <point x="1408" y="956" type="line"/>
      <point x="1252" y="956" type="line"/>
      <point x="1008" y="156" type="line"/>
      <point x="1026" y="156" type="line"/>
      <point x="790" y="910" type="line"/>
      <point x="660" y="910" type="line"/>
      <point x="422" y="158" type="line"/>
      <point x="442" y="158" type="line"/>
      <point x="198" y="956" type="line"/>
    </contour>
  </outline>
</glyph>
<glyph name="x" format="2">
  <advance width="1023"/>
  <unicode hex="0078"/>
  <outline>
    <contour>
      <point x="52" y="0" type="line"/>
      <point x="242" y="0" type="line"/>
      <point x="504" y="364" type="line"/>
      <point x="778" y="0" type="line"/>
      <point x="968" y="0" type="line"/>
      <point x="606" y="478" type="line"/>
      <point x="970" y="958" type="line"/>
      <point x="780" y="958" type="line"/>
      <point x="516" y="596" type="line"/>
      <point x="242" y="958" type="line"/>
      <point x="52" y="958" type="line"/>
      <point x="414" y="478" type="line"/>
    </contour>
  </outline>
</glyph>
<glyph name="y" format="2">
  <advance width="931"/>
  <unicode hex="0079"/>
  <outline>
    <contour>
      <point x="44" y="956" type="line"/>
      <point x="436" y="0" type="line"/>
      <point x="408" y="-96" type="line" smooth="yes"/>
      <point x="370" y="-226"/>
      <point x="314" y="-356"/>
      <point x="194" y="-356" type="curve" smooth="yes"/>
      <point x="122" y="-356"/>
      <point x="58" y="-334"/>
      <point x="-12" y="-278" type="curve"/>
      <point x="-12" y="-422" type="line"/>
      <point x="68" y="-468"/>
      <point x="140" y="-492"/>
      <point x="224" y="-492" type="curve" smooth="yes"/>
      <point x="380" y="-492"/>
      <point x="476" y="-384"/>
      <point x="536" y="-192" type="curve" smooth="yes"/>
      <point x="896" y="956" type="line"/>
      <point x="736" y="956" type="line"/>
      <point x="494" y="136" type="line"/>
      <point x="530" y="136" type="line"/>
      <point x="218" y="956" type="line"/>
    </contour>
  </outline>
</glyph>
<glyph name="z" format="2">
  <advance width="949"/>
  <unicode hex="007A"/>
  <outline>
    <contour>
      <point x="106" y="0" type="line"/>
      <point x="846" y="0" type="line"/>
      <point x="846" y="126" type="line"/>
      <point x="290" y="126" type="line"/>
      <point x="846" y="830" type="line"/>
      <point x="846" y="956" type="line"/>
      <point x="106" y="956" type="line"/>
      <point x="106" y="830" type="line"/>
      <point x="670" y="830" type="line"/>
      <point x="106" y="126" type="line"/>
    </contour>
  </outline>
</glyph>
<glyph name="braceleft" format="2">
  <advance width="696"/>
  <unicode hex="007B"/>
  <outline>
    <contour>
      <point x="680" y="-276" type="curve"/>
      <point x="680" y="-138" type="line"/>
      <point x="484" y="-138"/>
      <point x="410" y="-22"/>
      <point x="410" y="194" type="curve" smooth="yes"/>
      <point x="410" y="380" type="line" smooth="yes"/>
      <point x="410" y="504"/>
      <point x="368" y="574"/>
      <point x="306" y="606" type="curve"/>
      <point x="306" y="612" type="line"/>
      <point x="368" y="644"/>
      <point x="410" y="714"/>
      <point x="410" y="838" type="curve" smooth="yes"/>
      <point x="410" y="1024" type="line" smooth="yes"/>
      <point x="410" y="1240"/>
      <point x="484" y="1356"/>
      <point x="680" y="1356" type="curve"/>
      <point x="680" y="1494" type="line"/>
      <point x="370" y="1494"/>
      <point x="256" y="1298"/>
      <point x="256" y="1026" type="curve" smooth="yes"/>
      <point x="256" y="842" type="line" smooth="yes"/>
      <point x="256" y="726"/>
      <point x="236" y="684"/>
      <point x="184" y="684" type="curve" smooth="yes"/>
      <point x="150" y="684" type="line"/>
      <point x="150" y="532" type="line"/>
      <point x="184" y="532" type="line" smooth="yes"/>
      <point x="236" y="532"/>
      <point x="256" y="490"/>
      <point x="256" y="374" type="curve" smooth="yes"/>
      <point x="256" y="192" type="line" smooth="yes"/>
      <point x="256" y="-78"/>
      <point x="370" y="-276"/>
    </contour>
  </outline>
</glyph>
<glyph name="asciitilde" format="2">
  <advance width="1029"/>
  <unicode hex="007E"/>
  <anchor x="546" y="350" name="_above"/>
  <outline>
    <contour>
      <point x="192" y="446" type="line"/>
      <point x="228" y="534"/>
      <point x="270" y="564"/>
      <point x="316" y="564" type="curve" smooth="yes"/>
      <point x="354" y="564"/>
      <point x="390" y="550"/>
      <point x="498" y="510" type="curve" smooth="yes"/>
      <point x="598" y="470"/>
      <point x="656" y="454"/>
      <point x="696" y="454" type="curve" smooth="yes"/>
      <point x="794" y="454"/>
      <point x="874" y="518"/>
      <point x="922" y="664" type="curve"/>
      <point x="838" y="718" type="line"/>
      <point x="804" y="642"/>
      <point x="756" y="604"/>
      <point x="706" y="604" type="curve" smooth="yes"/>
      <point x="668" y="604"/>
      <point x="630" y="614"/>
      <point x="520" y="658" type="curve" smooth="yes"/>
      <point x="418" y="698"/>
      <point x="368" y="714"/>
      <point x="320" y="714" type="curve" smooth="yes"/>
      <point x="222" y="714"/>
      <point x="150" y="636"/>
      <point x="106" y="492" type="curve"/>
    </contour>
  </outline>
</glyph>
<glyph name="cent" format="2">
  <advance width="1025"/>
  <unicode hex="00A2"/>
  <outline>
    <contour>
      <point x="470" y="-210" type="line"/>
      <point x="604" y="-210" type="line"/>
      <point x="604" y="18" type="line"/>
      <point x="470" y="18" type="line"/>
    </contour>
    <contour>
      <point x="470" y="942" type="line"/>
      <point x="604" y="942" type="line"/>
      <point x="604" y="1142" type="line"/>
      <point x="470" y="1142" type="line"/>
    </contour>
    <component base="c"/>
  </outline>
</glyph>
<glyph name="sterling" format="2">
  <advance width="1129"/>
  <unicode hex="00A3"/>
  <outline>
    <contour>
      <point x="96" y="90" type="line"/>
      <point x="330" y="90"/>
      <point x="398" y="160"/>
      <point x="398" y="324" type="curve" smooth="yes"/>
      <point x="398" y="864" type="line" smooth="yes"/>
      <point x="398" y="1052"/>
      <point x="478" y="1136"/>
      <point x="610" y="1136" type="curve" smooth="yes"/>
      <point x="704" y="1136"/>
      <point x="782" y="1086"/>
      <point x="800" y="978" type="curve"/>
      <point x="954" y="978" type="line"/>
      <point x="922" y="1176"/>
      <point x="796" y="1278"/>
      <point x="610" y="1278" type="curve" smooth="yes"/>
      <point x="366" y="1278"/>
      <point x="242" y="1124"/>
      <point x="242" y="864" type="curve" smooth="yes"/>
      <point x="242" y="316" type="line" smooth="yes"/>
      <point x="242" y="194"/>
      <point x="198" y="136"/>
      <point x="96" y="136" type="curve"/>
    </contour>
    <contour>
      <point x="40" y="0" type="line"/>
      <point x="690" y="0" type="line" smooth="yes"/>
      <point x="950" y="0"/>
      <point x="1044" y="118"/>
      <point x="1056" y="306" type="curve"/>
      <point x="890" y="306" type="line"/>
      <point x="872" y="190"/>
      <point x="818" y="136"/>
      <point x="690" y="136" type="curve" smooth="yes"/>
      <point x="40" y="136" type="line"/>
    </contour>
    <contour>
      <point x="60" y="534" type="line"/>
      <point x="760" y="534" type="line"/>
      <point x="760" y="644" type="line"/>
      <point x="60" y="644" type="line"/>
    </contour>
  </outline>
</glyph>
<glyph name="dieresis" format="2">
  <advance width="643"/>
  <unicode hex="00A8"/>
  <anchor x="320" y="1360" name="_above"/>
  <outline>
    <contour>
      <point x="486" y="1558" type="curve" smooth="yes"/>
      <point x="546" y="1558"/>
      <point x="592" y="1600"/>
      <point x="592" y="1656" type="curve" smooth="yes"/>
      <point x="592" y="1712"/>
      <point x="546" y="1758"/>
      <point x="486" y="1758" type="curve" smooth="yes"/>
      <point x="428" y="1758"/>
      <point x="382" y="1712"/>
      <point x="382" y="1656" type="curve" smooth="yes"/>
      <point x="382" y="1600"/>
      <point x="428" y="1558"/>
    </contour>
    <contour>
      <point x="152" y="1558" type="curve" smooth="yes"/>
      <point x="212" y="1558"/>
      <point x="258" y="1600"/>
      <point x="258" y="1654" type="curve" smooth="yes"/>
      <point x="258" y="1712"/>
      <point x="212" y="1756"/>
      <point x="152" y="1756" type="curve" smooth="yes"/>
      <point x="92" y="1756"/>
      <point x="48" y="1712"/>
      <point x="48" y="1654" type="curve" smooth="yes"/>
      <point x="48" y="1600"/>
      <point x="92" y="1558"/>
    </contour>
  </outline>
</glyph>
<glyph name="plusminus" format="2">
  <advance width="975"/>
  <unicode hex="00B1"/>
  <outline>
    <contour>
      <point x="422" y="1050" type="line"/>
      <point x="422" y="718" type="line"/>
      <point x="114" y="718" type="line"/>
      <point x="114" y="612" type="line"/>
      <point x="422" y="612" type="line"/>
      <point x="422" y="280" type="line"/>
      <point x="552" y="280" type="line"/>
      <point x="552" y="612" type="line"/>
      <point x="860" y="612" type="line"/>
      <point x="860" y="718" type="line"/>
      <point x="552" y="718" type="line"/>
      <point x="552" y="1050" type="line"/>
    </contour>
    <contour>
      <point x="146" y="120" type="line"/>
      <point x="146" y="0" type="line"/>
      <point x="830" y="0" type="line"/>
      <point x="830" y="120" type="line"/>
    </contour>
  </outline>
</glyph>
<glyph name="acute" format="2">
  <advance width="627"/>
  <unicode hex="00B4"/>
  <anchor x="314" y="1270" name="_above"/>
  <outline>
    <contour>
      <point x="92" y="1354" type="line"/>
      <point x="578" y="1580" type="line"/>
      <point x="514" y="1718" type="line"/>
      <point x="46" y="1452" type="line"/>
    </contour>
  </outline>
</glyph>
<glyph name="multiply" format="2">
  <advance width="1055"/>
  <unicode hex="00D7"/>
  <outline>
    <contour>
      <point x="242" y="110" type="line"/>
      <point x="528" y="394" type="line"/>
      <point x="812" y="110" type="line"/>
      <point x="922" y="220" type="line"/>
      <point x="636" y="506" type="line"/>
      <point x="922" y="788" type="line"/>
      <point x="812" y="898" type="line"/>
      <point x="528" y="614" type="line"/>
      <point x="242" y="898" type="line"/>
      <point x="134" y="788" type="line"/>
      <point x="418" y="506" type="line"/>
      <point x="134" y="220" type="line"/>
    </contour>
  </outline>
</glyph>
<glyph name="divide" format="2">
  <advance width="1031"/>
  <unicode hex="00F7"/>
  <outline>
    <contour>
      <point x="166" y="452" type="line"/>
      <point x="864" y="452" type="line"/>
      <point x="864" y="588" type="line"/>
      <point x="166" y="588" type="line"/>
    </contour>
    <contour>
      <point x="514" y="140" type="curve" smooth="yes"/>
      <point x="574" y="140"/>
      <point x="618" y="184"/>
      <point x="618" y="238" type="curve" smooth="yes"/>
      <point x="618" y="292"/>
      <point x="574" y="338"/>
      <point x="514" y="338" type="curve" smooth="yes"/>
      <point x="456" y="338"/>
      <point x="412" y="292"/>
      <point x="412" y="238" type="curve" smooth="yes"/>
      <point x="412" y="184"/>
      <point x="456" y="140"/>
    </contour>
    <contour>
      <point x="514" y="700" type="curve" smooth="yes"/>
      <point x="574" y="700"/>
      <point x="618" y="742"/>
      <point x="618" y="798" type="curve" smooth="yes"/>
      <point x="618" y="852"/>
      <point x="574" y="896"/>
      <point x="514" y="896" type="curve" smooth="yes"/>
      <point x="456" y="896"/>
      <point x="412" y="852"/>
      <point x="412" y="798" type="curve" smooth="yes"/>
      <point x="412" y="742"/>
      <point x="456" y="700"/>
    </contour>
  </outline>
</glyph>
<glyph name="dotlessi" format="2">
  <advance width="560"/>
  <unicode hex="0131"/>
  <anchor x="280" y="1012" name="above"/>
  <outline>
    <contour>
      <point x="202" y="0" type="line"/>
      <point x="358" y="0" type="line"/>
      <point x="358" y="958" type="line"/>
      <point x="202" y="958" type="line"/>
    </contour>
  </outline>
</glyph>
<glyph name="circumflex" format="2">
  <advance width="811"/>
  <unicode hex="02C6"/>
  <anchor x="406" y="1270" name="_above"/>
  <outline>
    <contour>
      <point x="146" y="1352" type="line"/>
      <point x="406" y="1570" type="line"/>
      <point x="664" y="1352" type="line"/>
      <point x="764" y="1430" type="line"/>
      <point x="406" y="1744" type="line"/>
      <point x="48" y="1430" type="line"/>
    </contour>
  </outline>
</glyph>
<glyph name="tilde" format="2">
  <advance width="730"/>
  <unicode hex="02DC"/>
  <anchor x="360" y="1270" name="_above"/>
  <outline>
    <contour>
      <point x="110" y="1436" type="line"/>
      <point x="144" y="1514"/>
      <point x="182" y="1540"/>
      <point x="224" y="1540" type="curve" smooth="yes"/>
      <point x="252" y="1540"/>
      <point x="270" y="1532"/>
      <point x="344" y="1494" type="curve" smooth="yes"/>
      <point x="430" y="1450"/>
      <point x="466" y="1436"/>
      <point x="506" y="1436" type="curve" smooth="yes"/>
      <point x="576" y="1436"/>
      <point x="646" y="1510"/>
      <point x="676" y="1636" type="curve"/>
      <point x="608" y="1682" type="line"/>
      <point x="580" y="1610"/>
      <point x="540" y="1578"/>
      <point x="502" y="1578" type="curve" smooth="yes"/>
      <point x="472" y="1578"/>
      <point x="452" y="1588"/>
      <point x="370" y="1630" type="curve" smooth="yes"/>
      <point x="286" y="1674"/>
      <point x="258" y="1682"/>
      <point x="224" y="1682" type="curve" smooth="yes"/>
      <point x="142" y="1682"/>
      <point x="78" y="1610"/>
      <point x="46" y="1476" type="curve"/>
    </contour>
  </outline>
</glyph>
<glyph name="endash" format="2">
  <advance width="945"/>
  <unicode hex="2013"/>
  <outline>
    <contour>
      <point x="110" y="514" type="line"/>
      <point x="836" y="514" type="line"/>
      <point x="836" y="650" type="line"/>
      <point x="110" y="650" type="line"/>
    </contour>
  </outline>
</glyph>
<glyph name="emdash" format="2">
  <advance width="1449"/>
  <unicode hex="2014"/>
  <outline>
    <contour>
      <point x="110" y="514" type="line"/>
      <point x="1342" y="514" type="line"/>
      <point x="1342" y="650" type="line"/>
      <point x="110" y="650" type="line"/>
    </contour>
  </outline>
</glyph>
<glyph name="quoteleft" format="2">
  <advance width="425"/>
  <unicode hex="2018"/>
  <outline>
    <contour>
      <point x="210" y="838" type="curve" smooth="yes"/>
      <point x="276" y="838"/>
      <point x="322" y="886"/>
      <point x="322" y="944" type="curve" smooth="yes"/>
      <point x="322" y="1000"/>
      <point x="278" y="1034"/>
      <point x="216" y="1040" type="curve"/>
      <point x="234" y="1106"/>
      <point x="290" y="1154"/>
      <point x="366" y="1192" type="curve"/>
      <point x="254" y="1252" type="line"/>
      <point x="138" y="1192"/>
      <point x="72" y="1090"/>
      <point x="72" y="996" type="curve" smooth="yes"/>
      <point x="72" y="906"/>
      <point x="128" y="838"/>
    </contour>
  </outline>
</glyph>
<glyph name="quoteright" format="2">
  <advance width="425"/>
  <unicode hex="2019"/>
  <outline>
    <contour>
      <point x="142" y="838" type="line"/>
      <point x="256" y="900"/>
      <point x="322" y="1000"/>
      <point x="322" y="1094" type="curve" smooth="yes"/>
      <point x="322" y="1184"/>
      <point x="268" y="1252"/>
      <point x="188" y="1252" type="curve" smooth="yes"/>
      <point x="118" y="1252"/>
      <point x="72" y="1206"/>
      <point x="72" y="1148" type="curve" smooth="yes"/>
      <point x="72" y="1090"/>
      <point x="118" y="1054"/>
      <point x="178" y="1048" type="curve"/>
      <point x="162" y="984"/>
      <point x="106" y="936"/>
      <point x="30" y="898" type="curve"/>
    </contour>
  </outline>
</glyph>
<glyph name="euro" format="2">
  <advance width="1226"/>
  <unicode hex="20AC"/>
  <outline>
    <contour>
      <point x="672" y="-24" type="curve" smooth="yes"/>
      <point x="960" y="-24"/>
      <point x="1160" y="138"/>
      <point x="1160" y="408" type="curve"/>
      <point x="990" y="408" type="line"/>
      <point x="990" y="234"/>
      <point x="864" y="118"/>
      <point x="672" y="118" type="curve" smooth="yes"/>
      <point x="432" y="118"/>
      <point x="310" y="336"/>
      <point x="310" y="636" type="curve" smooth="yes"/>
      <point x="310" y="966"/>
      <point x="482" y="1138"/>
      <point x="672" y="1138" type="curve" smooth="yes"/>
      <point x="818" y="1138"/>
      <point x="938" y="1038"/>
      <point x="990" y="882" type="curve"/>
      <point x="1158" y="916" type="line"/>
      <point x="1096" y="1130"/>
      <point x="934" y="1278"/>
      <point x="672" y="1278" type="curve" smooth="yes"/>
      <point x="374" y="1278"/>
      <point x="142" y="1054"/>
      <point x="142" y="636" type="curve" smooth="yes"/>
      <point x="142" y="244"/>
      <point x="346" y="-24"/>
    </contour>
    <contour>
      <point x="52" y="482" type="line"/>
      <point x="736" y="482" type="line"/>
      <point x="736" y="580" type="line"/>
      <point x="52" y="580" type="line"/>
    </contour>
    <contour>
      <point x="52" y="684" type="line"/>
      <point x="736" y="684" type="line"/>
      <point x="736" y="782" type="line"/>
      <point x="52" y="782" type="line"/>
    </contour>
  </outline>
</glyph>
<glyph name="Rupee" format="2">
  <advance width="1161"/>
  <unicode hex="20B9"/>
  <outline>
    <contour>
      <point x="184" y="1160" type="line"/>
      <point x="1014" y="1160" type="line"/>
      <point x="1014" y="1256" type="line"/>
      <point x="184" y="1256" type="line"/>
    </contour>
    <contour>
      <point x="184" y="856" type="line"/>
      <point x="1014" y="856" type="line"/>
      <point x="1014" y="954" type="line"/>
      <point x="184" y="954" type="line"/>
    </contour>
    <contour>
      <point x="184" y="592" type="line"/>
      <point x="184" y="494" type="line"/>
      <point x="726" y="0" type="line"/>
      <point x="946" y="0" type="line"/>
      <point x="298" y="592" type="line"/>
    </contour>
    <contour>
      <point x="238" y="592" type="line"/>
      <point x="238" y="494" type="line"/>
      <point x="306" y="494" type="line" smooth="yes"/>
      <point x="682" y="494"/>
      <point x="826" y="666"/>
      <point x="826" y="878" type="curve" smooth="yes"/>
      <point x="826" y="1082"/>
      <point x="658" y="1230"/>
      <point x="306" y="1230" type="curve" smooth="yes"/>
      <point x="238" y="1230" type="line"/>
      <point x="238" y="1160" type="line"/>
      <point x="306" y="1160" type="line" smooth="yes"/>
      <point x="548" y="1160"/>
      <point x="658" y="1040"/>
      <point x="658" y="878" type="curve" smooth="yes"/>
      <point x="658" y="716"/>
      <point x="548" y="592"/>
      <point x="306" y="592" type="curve" smooth="yes"/>
    </contour>
  </outline>
</glyph>
<glyph name="lessequal" format="2">
  <advance width="975"/>
  <unicode hex="2264"/>
  <outline>
    <contour>
      <point x="786" y="262" type="line"/>
      <point x="826" y="388" type="line"/>
      <point x="254" y="598" type="line"/>
      <point x="254" y="542" type="line"/>
      <point x="826" y="758" type="line"/>
      <point x="786" y="880" type="line"/>
      <point x="164" y="630" type="line"/>
      <point x="164" y="512" type="line"/>
    </contour>
    <contour>
      <point x="150" y="0" type="line"/>
      <point x="808" y="0" type="line"/>
      <point x="808" y="120" type="line"/>
      <point x="150" y="120" type="line"/>
    </contour>
  </outline>
</glyph>
<glyph name="greaterequal" format="2">
  <advance width="975"/>
  <unicode hex="2265"/>
  <outline>
    <contour>
      <point x="190" y="262" type="line"/>
      <point x="810" y="512" type="line"/>
      <point x="810" y="630" type="line"/>
      <point x="190" y="880" type="line"/>
      <point x="148" y="758" type="line"/>
      <point x="720" y="542" type="line"/>
      <point x="720" y="598" type="line"/>
      <point x="148" y="388" type="line"/>
    </contour>
    <contour>
      <point x="166" y="0" type="line"/>
      <point x="824" y="0" type="line"/>
      <point x="824" y="120" type="line"/>
      <point x="166" y="120" type="line"/>
    </contour>
  </outline>
</glyph>
<glyph name="asciicircum.tf" format="2">
  <advance width="1200"/>
  <outline>
    <contour>
      <point x="188" y="490" type="line"/>
      <point x="364" y="490" type="line"/>
      <point x="630" y="1046" type="line"/>
      <point x="572" y="1046" type="line"/>
      <point x="836" y="490" type="line"/>
      <point x="1012" y="490" type="line"/>
      <point x="662" y="1172" type="line"/>
      <point x="540" y="1172" type="line"/>
    </contour>
  </outline>
</glyph>
<glyph name="asciitilde.tf" format="2">
  <advance width="1200"/>
  <outline>
    <contour>
      <point x="276" y="446" type="line"/>
      <point x="312" y="534"/>
      <point x="354" y="564"/>
      <point x="400" y="564" type="curve" smooth="yes"/>
      <point x="438" y="564"/>
      <point x="476" y="552"/>
      <point x="582" y="510" type="curve" smooth="yes"/>
      <point x="682" y="470"/>
      <point x="740" y="454"/>
      <point x="780" y="454" type="curve" smooth="yes"/>
      <point x="880" y="454"/>
      <point x="960" y="518"/>
      <point x="1008" y="664" type="curve"/>
      <point x="922" y="718" type="line"/>
      <point x="890" y="642"/>
      <point x="842" y="604"/>
      <point x="792" y="604" type="curve" smooth="yes"/>
      <point x="754" y="604"/>
      <point x="714" y="614"/>
      <point x="606" y="658" type="curve" smooth="yes"/>
      <point x="502" y="698"/>
      <point x="452" y="714"/>
      <point x="404" y="714" type="curve" smooth="yes"/>
      <point x="306" y="714"/>
      <point x="234" y="636"/>
      <point x="190" y="492" type="curve"/>
    </contour>
  </outline>
</glyph>
<glyph name="asterisk.tf" format="2">
  <advance width="1200"/>
  <outline>
    <contour>
      <point x="442" y="776" type="line"/>
      <point x="602" y="984" type="line"/>
      <point x="760" y="776" type="line"/>
      <point x="850" y="854" type="line"/>
      <point x="670" y="1032" type="line"/>
      <point x="902" y="1112" type="line"/>
      <point x="854" y="1220" type="line"/>
      <point x="642" y="1112" type="line"/>
      <point x="660" y="1368" type="line"/>
      <point x="540" y="1368" type="line"/>
      <point x="558" y="1112" type="line"/>
      <point x="346" y="1218" type="line"/>
      <point x="298" y="1112" type="line"/>
      <point x="532" y="1030" type="line"/>
      <point x="352" y="854" type="line"/>
    </contour>
  </outline>
</glyph>
<glyph name="comma.tf" format="2">
  <advance width="1200"/>
  <outline>
    <contour>
      <point x="566" y="-224" type="line"/>
      <point x="698" y="-160"/>
      <point x="764" y="-42"/>
      <point x="764" y="62" type="curve" smooth="yes"/>
      <point x="764" y="158"/>
      <point x="702" y="234"/>
      <point x="612" y="234" type="curve" smooth="yes"/>
      <point x="536" y="234"/>
      <point x="486" y="182"/>
      <point x="486" y="120" type="curve" smooth="yes"/>
      <point x="486" y="56"/>
      <point x="536" y="14"/>
      <point x="604" y="6" type="curve"/>
      <point x="584" y="-66"/>
      <point x="522" y="-118"/>
      <point x="436" y="-162" type="curve"/>
    </contour>
  </outline>
</glyph>
<glyph name="currency.tf" format="2">
  <advance width="1200"/>
  <outline>
    <contour>
      <point x="600" y="226" type="curve" smooth="yes"/>
      <point x="824" y="226"/>
      <point x="1004" y="408"/>
      <point x="1004" y="634" type="curve" smooth="yes"/>
      <point x="1004" y="856"/>
      <point x="824" y="1038"/>
      <point x="600" y="1038" type="curve" smooth="yes"/>
      <point x="376" y="1038"/>
      <point x="194" y="856"/>
      <point x="194" y="634" type="curve" smooth="yes"/>
      <point x="194" y="408"/>
      <point x="376" y="226"/>
    </contour>
    <contour>
      <point x="600" y="372" type="curve" smooth="yes"/>
      <point x="456" y="372"/>
      <point x="340" y="488"/>
      <point x="340" y="634" type="curve" smooth="yes"/>
      <point x="340" y="778"/>
      <point x="456" y="892"/>
      <point x="600" y="892" type="curve" smooth="yes"/>
      <point x="742" y="892"/>
      <point x="860" y="778"/>
      <point x="860" y="634" type="curve" smooth="yes"/>
      <point x="860" y="488"/>
      <point x="742" y="372"/>
    </contour>
    <contour>
      <point x="860" y="814" type="line"/>
      <point x="1056" y="1010" type="line"/>
      <point x="976" y="1088" type="line"/>
      <point x="780" y="894" type="line"/>
    </contour>
    <contour>
      <point x="334" y="820" type="line"/>
      <point x="412" y="900" type="line"/>
      <point x="222" y="1088" type="line"/>
      <point x="144" y="1008" type="line"/>
    </contour>
    <contour>
      <point x="866" y="446" type="line"/>
      <point x="788" y="366" type="line"/>
      <point x="978" y="176" type="line"/>
      <point x="1056" y="258" type="line"/>
    </contour>
    <contour>
      <point x="334" y="446" type="line"/>
      <point x="144" y="258" type="line"/>
      <point x="222" y="176" type="line"/>
      <point x="412" y="366" type="line"/>
    </contour>
  </outline>
</glyph>
<glyph name="dollar.tf" format="2">
  <advance width="1200"/>
  <outline>
    <contour>
      <point x="604" y="-24" type="curve" smooth="yes"/>
      <point x="924" y="-24"/>
      <point x="1080" y="154"/>
      <point x="1080" y="330" type="curve" smooth="yes"/>
      <point x="1080" y="502"/>
      <point x="970" y="602"/>
      <point x="794" y="660" type="curve" smooth="yes"/>
      <point x="600" y="724" type="line"/>
      <point x="600" y="584" type="line"/>
      <point x="730" y="540" type="line" smooth="yes"/>
      <point x="840" y="506"/>
      <point x="906" y="434"/>
      <point x="906" y="334" type="curve" smooth="yes"/>
      <point x="906" y="222"/>
      <point x="802" y="120"/>
      <point x="608" y="120" type="curve" smooth="yes"/>
      <point x="418" y="120"/>
      <point x="272" y="198"/>
      <point x="272" y="376" type="curve"/>
      <point x="118" y="376" type="line"/>
      <point x="118" y="112"/>
      <point x="348" y="-24"/>
    </contour>
    <contour>
      <point x="546" y="-182" type="line"/>
      <point x="668" y="-182" type="line"/>
      <point x="668" y="1424" type="line"/>
      <point x="546" y="1424" type="line"/>
    </contour>
    <contour>
      <point x="592" y="584" type="line"/>
      <point x="592" y="726" type="line"/>
      <point x="492" y="762" type="line" smooth="yes"/>
      <point x="378" y="798"/>
      <point x="324" y="850"/>
      <point x="324" y="942" type="curve" smooth="yes"/>
      <point x="324" y="1058"/>
      <point x="426" y="1142"/>
      <point x="610" y="1142" type="curve" smooth="yes"/>
      <point x="768" y="1142"/>
      <point x="870" y="1068"/>
      <point x="888" y="952" type="curve"/>
      <point x="1042" y="952" type="line"/>
      <point x="1014" y="1148"/>
      <point x="868" y="1278"/>
      <point x="612" y="1278" type="curve" smooth="yes"/>
      <point x="316" y="1278"/>
      <point x="156" y="1142"/>
      <point x="156" y="948" type="curve" smooth="yes"/>
      <point x="156" y="774"/>
      <point x="272" y="692"/>
      <point x="490" y="618" type="curve" smooth="yes"/>
    </contour>
  </outline>
</glyph>
<glyph name="eight.prop" format="2">
  <advance width="1229"/>
  <outline>
    <contour>
      <point x="614" y="-24" type="curve" smooth="yes"/>
      <point x="934" y="-24"/>
      <point x="1120" y="116"/>
      <point x="1120" y="314" type="curve" smooth="yes"/>
      <point x="1120" y="476"/>
      <point x="1018" y="560"/>
      <point x="834" y="630" type="curve" smooth="yes"/>
      <point x="488" y="762" type="line" smooth="yes"/>
      <point x="380" y="802"/>
      <point x="316" y="850"/>
      <point x="316" y="940" type="curve" smooth="yes"/>
      <point x="316" y="1048"/>
      <point x="444" y="1136"/>
      <point x="614" y="1136" type="curve" smooth="yes"/>
      <point x="790" y="1136"/>
      <point x="910" y="1046"/>
      <point x="910" y="922" type="curve" smooth="yes"/>
      <point x="910" y="792"/>
      <point x="784" y="704"/>
      <point x="622" y="704" type="curve"/>
      <point x="622" y="654" type="line"/>
      <point x="662" y="642"/>
      <point x="692" y="638"/>
      <point x="728" y="638" type="curve" smooth="yes"/>
      <point x="952" y="638"/>
      <point x="1072" y="774"/>
      <point x="1072" y="930" type="curve" smooth="yes"/>
      <point x="1072" y="1130"/>
      <point x="880" y="1278"/>
      <point x="614" y="1278" type="curve" smooth="yes"/>
      <point x="324" y="1278"/>
      <point x="152" y="1140"/>
      <point x="152" y="946" type="curve" smooth="yes"/>
      <point x="152" y="774"/>
      <point x="306" y="674"/>
      <point x="432" y="626" type="curve" smooth="yes"/>
      <point x="778" y="494" type="line" smooth="yes"/>
      <point x="888" y="454"/>
      <point x="956" y="398"/>
      <point x="956" y="308" type="curve" smooth="yes"/>
      <point x="956" y="196"/>
      <point x="830" y="120"/>
      <point x="614" y="120" type="curve" smooth="yes"/>
      <point x="420" y="120"/>
      <point x="272" y="202"/>
      <point x="272" y="350" type="curve" smooth="yes"/>
      <point x="272" y="472"/>
      <point x="406" y="582"/>
      <point x="606" y="582" type="curve"/>
      <point x="606" y="628" type="line"/>
      <point x="564" y="638"/>
      <point x="530" y="642"/>
      <point x="492" y="642" type="curve" smooth="yes"/>
      <point x="272" y="642"/>
      <point x="110" y="528"/>
      <point x="110" y="338" type="curve" smooth="yes"/>
      <point x="110" y="130"/>
      <point x="318" y="-24"/>
    </contour>
  </outline>
</glyph>
<glyph name="eight.tf" format="2">
  <advance width="1200"/>
  <outline>
    <contour>
      <point x="598" y="-24" type="curve" smooth="yes"/>
      <point x="918" y="-24"/>
      <point x="1104" y="116"/>
      <point x="1104" y="314" type="curve" smooth="yes"/>
      <point x="1104" y="476"/>
      <point x="1004" y="560"/>
      <point x="820" y="630" type="curve" smooth="yes"/>
      <point x="472" y="762" type="line" smooth="yes"/>
      <point x="364" y="802"/>
      <point x="300" y="850"/>
      <point x="300" y="940" type="curve" smooth="yes"/>
      <point x="300" y="1048"/>
      <point x="428" y="1136"/>
      <point x="598" y="1136" type="curve" smooth="yes"/>
      <point x="774" y="1136"/>
      <point x="894" y="1046"/>
      <point x="894" y="922" type="curve" smooth="yes"/>
      <point x="894" y="792"/>
      <point x="768" y="704"/>
      <point x="608" y="704" type="curve"/>
      <point x="608" y="654" type="line"/>
      <point x="646" y="642"/>
      <point x="676" y="638"/>
      <point x="712" y="638" type="curve" smooth="yes"/>
      <point x="938" y="638"/>
      <point x="1058" y="774"/>
      <point x="1058" y="930" type="curve" smooth="yes"/>
      <point x="1058" y="1130"/>
      <point x="864" y="1278"/>
      <point x="598" y="1278" type="curve" smooth="yes"/>
      <point x="308" y="1278"/>
      <point x="136" y="1140"/>
      <point x="136" y="946" type="curve" smooth="yes"/>
      <point x="136" y="774"/>
      <point x="290" y="674"/>
      <point x="416" y="626" type="curve" smooth="yes"/>
      <point x="764" y="494" type="line" smooth="yes"/>
      <point x="872" y="452"/>
      <point x="942" y="398"/>
      <point x="942" y="308" type="curve" smooth="yes"/>
      <point x="942" y="196"/>
      <point x="814" y="120"/>
      <point x="598" y="120" type="curve" smooth="yes"/>
      <point x="404" y="120"/>
      <point x="258" y="202"/>
      <point x="258" y="350" type="curve" smooth="yes"/>
      <point x="258" y="472"/>
      <point x="392" y="582"/>
      <point x="590" y="582" type="curve"/>
      <point x="590" y="628" type="line"/>
      <point x="548" y="638"/>
      <point x="516" y="642"/>
      <point x="476" y="642" type="curve" smooth="yes"/>
      <point x="258" y="642"/>
      <point x="94" y="528"/>
      <point x="94" y="338" type="curve" smooth="yes"/>
      <point x="94" y="130"/>
      <point x="304" y="-24"/>
    </contour>
  </outline>
</glyph>
<glyph name="equal.tf" format="2">
  <advance width="1200"/>
  <outline>
    <contour>
      <point x="270" y="368" type="line"/>
      <point x="270" y="234" type="line"/>
      <point x="930" y="234" type="line"/>
      <point x="930" y="368" type="line"/>
    </contour>
    <contour>
      <point x="270" y="752" type="line"/>
      <point x="270" y="616" type="line"/>
      <point x="930" y="616" type="line"/>
      <point x="930" y="752" type="line"/>
    </contour>
  </outline>
</glyph>
<glyph name="euro.tf" format="2">
  <advance width="1200"/>
  <outline>
    <contour>
      <point x="666" y="-24" type="curve" smooth="yes"/>
      <point x="934" y="-24"/>
      <point x="1132" y="138"/>
      <point x="1132" y="408" type="curve"/>
      <point x="962" y="408" type="line"/>
      <point x="962" y="234"/>
      <point x="842" y="118"/>
      <point x="658" y="118" type="curve" smooth="yes"/>
      <point x="418" y="118"/>
      <point x="308" y="336"/>
      <point x="308" y="630" type="curve" smooth="yes"/>
      <point x="308" y="970"/>
      <point x="480" y="1138"/>
      <point x="658" y="1138" type="curve" smooth="yes"/>
      <point x="794" y="1138"/>
      <point x="910" y="1038"/>
      <point x="958" y="882" type="curve"/>
      <point x="1126" y="916" type="line"/>
      <point x="1068" y="1130"/>
      <point x="912" y="1278"/>
      <point x="658" y="1278" type="curve" smooth="yes"/>
      <point x="372" y="1278"/>
      <point x="140" y="1054"/>
      <point x="140" y="636" type="curve" smooth="yes"/>
      <point x="140" y="244"/>
      <point x="340" y="-24"/>
    </contour>
    <contour>
      <point x="50" y="482" type="line"/>
      <point x="706" y="482" type="line"/>
      <point x="706" y="580" type="line"/>
      <point x="50" y="580" type="line"/>
    </contour>
    <contour>
      <point x="50" y="684" type="line"/>
      <point x="706" y="684" type="line"/>
      <point x="706" y="782" type="line"/>
      <point x="50" y="782" type="line"/>
    </contour>
  </outline>
</glyph>
<glyph name="exclam.tf" format="2">
  <advance width="1200"/>
  <outline>
    <contour>
      <point x="536" y="352" type="line"/>
      <point x="662" y="352" type="line"/>
      <point x="682" y="1252" type="line"/>
      <point x="516" y="1252" type="line"/>
    </contour>
    <contour>
      <point x="598" y="-18" type="curve" smooth="yes"/>
      <point x="666" y="-18"/>
      <point x="718" y="30"/>
      <point x="718" y="94" type="curve" smooth="yes"/>
      <point x="718" y="156"/>
      <point x="666" y="208"/>
      <point x="598" y="208" type="curve" smooth="yes"/>
      <point x="532" y="208"/>
      <point x="482" y="156"/>
      <point x="482" y="94" type="curve" smooth="yes"/>
      <point x="482" y="30"/>
      <point x="532" y="-18"/>
    </contour>
  </outline>
</glyph>
<glyph name="five.prop" format="2">
  <advance width="1137"/>
  <outline>
    <contour>
      <point x="538" y="-228" type="curve" smooth="yes"/>
      <point x="812" y="-228"/>
      <point x="1012" y="-42"/>
      <point x="1012" y="210" type="curve" smooth="yes"/>
      <point x="1012" y="458"/>
      <point x="838" y="612"/>
      <point x="562" y="612" type="curve" smooth="yes"/>
      <point x="492" y="612"/>
      <point x="420" y="604"/>
      <point x="354" y="588" type="curve"/>
      <point x="372" y="570" type="line"/>
      <point x="414" y="994" type="line"/>
      <point x="382" y="946" type="line"/>
      <point x="952" y="946" type="line"/>
      <point x="952" y="1088" type="line"/>
      <point x="264" y="1088" type="line"/>
      <point x="208" y="484" type="line"/>
      <point x="530" y="484" type="line" smooth="yes"/>
      <point x="744" y="484"/>
      <point x="852" y="378"/>
      <point x="852" y="210" type="curve" smooth="yes"/>
      <point x="852" y="42"/>
      <point x="722" y="-84"/>
      <point x="540" y="-84" type="curve" smooth="yes"/>
      <point x="384" y="-84"/>
      <point x="284" y="-4"/>
      <point x="284" y="148" type="curve"/>
      <point x="130" y="148" type="line"/>
      <point x="130" y="-96"/>
      <point x="322" y="-228"/>
    </contour>
  </outline>
</glyph>
<glyph name="five.tf" format="2">
  <advance width="1200"/>
  <outline>
    <contour>
      <point x="586" y="-24" type="curve" smooth="yes"/>
      <point x="864" y="-24"/>
      <point x="1038" y="162"/>
      <point x="1038" y="406" type="curve" smooth="yes"/>
      <point x="1038" y="646"/>
      <point x="866" y="768"/>
      <point x="596" y="768" type="curve" smooth="yes"/>
      <point x="532" y="768"/>
      <point x="440" y="762"/>
      <point x="376" y="748" type="curve"/>
      <point x="396" y="730" type="line"/>
      <point x="438" y="1168" type="line"/>
      <point x="406" y="1114" type="line"/>
      <point x="978" y="1114" type="line"/>
      <point x="978" y="1256" type="line"/>
      <point x="282" y="1256" type="line"/>
      <point x="226" y="648" type="line"/>
      <point x="564" y="648" type="line" smooth="yes"/>
      <point x="768" y="648"/>
      <point x="876" y="564"/>
      <point x="876" y="406" type="curve" smooth="yes"/>
      <point x="876" y="244"/>
      <point x="764" y="120"/>
      <point x="586" y="120" type="curve" smooth="yes"/>
      <point x="430" y="120"/>
      <point x="308" y="198"/>
      <point x="308" y="350" type="curve"/>
      <point x="150" y="350" type="line"/>
      <point x="154" y="108"/>
      <point x="348" y="-24"/>
    </contour>
  </outline>
</glyph>
<glyph name="four.prop" format="2">
  <advance width="1118"/>
  <outline>
    <contour>
      <point x="696" y="-210" type="line"/>
      <point x="852" y="-210" type="line"/>
      <point x="852" y="108" type="line"/>
      <point x="1070" y="108" type="line"/>
      <point x="1070" y="242" type="line"/>
      <point x="852" y="242" type="line"/>
      <point x="852" y="1090" type="line"/>
      <point x="706" y="1090" type="line"/>
      <point x="48" y="228" type="line"/>
      <point x="48" y="108" type="line"/>
      <point x="696" y="108" type="line"/>
    </contour>
    <contour>
      <point x="222" y="228" type="line"/>
      <point x="704" y="846" type="line"/>
      <point x="704" y="228" type="line"/>
    </contour>
  </outline>
</glyph>
<glyph name="four.tf" format="2">
  <advance width="1200"/>
  <outline>
    <contour>
      <point x="738" y="1274" type="line"/>
      <point x="86" y="426" type="line"/>
      <point x="86" y="306" type="line"/>
      <point x="774" y="306" type="line"/>
      <point x="730" y="342" type="line"/>
      <point x="730" y="0" type="line"/>
      <point x="882" y="0" type="line"/>
      <point x="882" y="342" type="line"/>
      <point x="854" y="306" type="line"/>
      <point x="1088" y="306" type="line"/>
      <point x="1088" y="426" type="line"/>
      <point x="852" y="426" type="line"/>
      <point x="882" y="402" type="line"/>
      <point x="882" y="1274" type="line"/>
    </contour>
    <contour>
      <point x="734" y="1124" type="line"/>
      <point x="734" y="388" type="line"/>
      <point x="778" y="426" type="line"/>
      <point x="228" y="426" type="line"/>
      <point x="232" y="384" type="line"/>
      <point x="798" y="1112" type="line"/>
    </contour>
  </outline>
</glyph>
<glyph name="greater.tf" format="2">
  <advance width="1200"/>
  <outline>
    <contour>
      <point x="336" y="80" type="line"/>
      <point x="966" y="542" type="line"/>
      <point x="966" y="678" type="line"/>
      <point x="336" y="1142" type="line"/>
      <point x="234" y="1022" type="line"/>
      <point x="852" y="578" type="line"/>
      <point x="852" y="642" type="line"/>
      <point x="234" y="202" type="line"/>
    </contour>
  </outline>
</glyph>
<glyph name="less.tf" format="2">
  <advance width="1200"/>
  <outline>
    <contour>
      <point x="862" y="1142" type="line"/>
      <point x="232" y="678" type="line"/>
      <point x="232" y="542" type="line"/>
      <point x="862" y="80" type="line"/>
      <point x="966" y="202" type="line"/>
      <point x="346" y="642" type="line"/>
      <point x="346" y="578" type="line"/>
      <point x="966" y="1022" type="line"/>
    </contour>
  </outline>
</glyph>
<glyph name="minus.tf" format="2">
  <advance width="1200"/>
  <outline>
    <contour>
      <point x="106" y="558" type="line"/>
      <point x="106" y="424" type="line"/>
      <point x="1094" y="424" type="line"/>
      <point x="1094" y="558" type="line"/>
    </contour>
  </outline>
</glyph>
<glyph name="nine.prop" format="2">
  <advance width="1159"/>
  <outline>
    <contour>
      <point x="562" y="-228" type="curve" smooth="yes"/>
      <point x="884" y="-228"/>
      <point x="1058" y="28"/>
      <point x="1058" y="454" type="curve" smooth="yes"/>
      <point x="1058" y="814"/>
      <point x="874" y="1100"/>
      <point x="558" y="1100" type="curve" smooth="yes"/>
      <point x="304" y="1100"/>
      <point x="132" y="940"/>
      <point x="132" y="708" type="curve" smooth="yes"/>
      <point x="132" y="478"/>
      <point x="314" y="312"/>
      <point x="540" y="312" type="curve" smooth="yes"/>
      <point x="730" y="312"/>
      <point x="868" y="432"/>
      <point x="888" y="636" type="curve"/>
      <point x="896" y="580"/>
      <point x="898" y="532"/>
      <point x="898" y="474" type="curve" smooth="yes"/>
      <point x="898" y="130"/>
      <point x="796" y="-84"/>
      <point x="562" y="-84" type="curve" smooth="yes"/>
      <point x="400" y="-84"/>
      <point x="308" y="12"/>
      <point x="306" y="166" type="curve"/>
      <point x="142" y="166" type="line"/>
      <point x="142" y="-64"/>
      <point x="318" y="-228"/>
    </contour>
    <contour>
      <point x="558" y="450" type="curve" smooth="yes"/>
      <point x="400" y="450"/>
      <point x="294" y="552"/>
      <point x="294" y="708" type="curve" smooth="yes"/>
      <point x="294" y="862"/>
      <point x="398" y="962"/>
      <point x="558" y="962" type="curve" smooth="yes"/>
      <point x="714" y="962"/>
      <point x="822" y="862"/>
      <point x="822" y="708" type="curve" smooth="yes"/>
      <point x="822" y="566"/>
      <point x="716" y="450"/>
    </contour>
  </outline>
</glyph>
<glyph name="nine.tf" format="2">
  <advance width="1200"/>
  <outline>
    <contour>
      <point x="572" y="-24" type="curve" smooth="yes"/>
      <point x="908" y="-24"/>
      <point x="1064" y="238"/>
      <point x="1064" y="652" type="curve" smooth="yes"/>
      <point x="1064" y="1032"/>
      <point x="850" y="1278"/>
      <point x="560" y="1278" type="curve" smooth="yes"/>
      <point x="310" y="1278"/>
      <point x="136" y="1126"/>
      <point x="136" y="892" type="curve" smooth="yes"/>
      <point x="136" y="664"/>
      <point x="308" y="500"/>
      <point x="534" y="500" type="curve" smooth="yes"/>
      <point x="724" y="500"/>
      <point x="866" y="606"/>
      <point x="892" y="822" type="curve"/>
      <point x="900" y="766"/>
      <point x="902" y="726"/>
      <point x="902" y="674" type="curve" smooth="yes"/>
      <point x="902" y="336"/>
      <point x="804" y="120"/>
      <point x="568" y="120" type="curve" smooth="yes"/>
      <point x="408" y="120"/>
      <point x="310" y="218"/>
      <point x="306" y="372" type="curve"/>
      <point x="144" y="372" type="line"/>
      <point x="144" y="142"/>
      <point x="322" y="-24"/>
    </contour>
    <contour>
      <point x="562" y="638" type="curve" smooth="yes"/>
      <point x="410" y="638"/>
      <point x="298" y="732"/>
      <point x="298" y="886" type="curve" smooth="yes"/>
      <point x="298" y="1040"/>
      <point x="410" y="1136"/>
      <point x="560" y="1136" type="curve" smooth="yes"/>
      <point x="712" y="1136"/>
      <point x="826" y="1040"/>
      <point x="826" y="886" type="curve" smooth="yes"/>
      <point x="826" y="746"/>
      <point x="712" y="638"/>
    </contour>
  </outline>
</glyph>
<glyph name="numbersign.tf" format="2">
  <advance width="1200"/>
  <outline>
    <contour>
      <point x="252" y="76" type="line"/>
      <point x="398" y="76" type="line"/>
      <point x="426" y="334" type="line"/>
      <point x="706" y="334" type="line"/>
      <point x="678" y="76" type="line"/>
      <point x="824" y="76" type="line"/>
      <point x="854" y="334" type="line"/>
      <point x="1046" y="334" type="line"/>
      <point x="1058" y="440" type="line"/>
      <point x="866" y="440" type="line"/>
      <point x="904" y="796" type="line"/>
      <point x="1094" y="796" type="line"/>
      <point x="1106" y="904" type="line"/>
      <point x="916" y="904" type="line"/>
      <point x="944" y="1158" type="line"/>
      <point x="798" y="1158" type="line"/>
      <point x="770" y="904" type="line"/>
      <point x="488" y="904" type="line"/>
      <point x="516" y="1158" type="line"/>
      <point x="370" y="1158" type="line"/>
      <point x="342" y="904" type="line"/>
      <point x="152" y="904" type="line"/>
      <point x="142" y="796" type="line"/>
      <point x="330" y="796" type="line"/>
      <point x="292" y="440" type="line"/>
      <point x="104" y="440" type="line"/>
      <point x="94" y="334" type="line"/>
      <point x="280" y="334" type="line"/>
    </contour>
    <contour>
      <point x="438" y="440" type="line"/>
      <point x="476" y="796" type="line"/>
      <point x="758" y="796" type="line"/>
      <point x="718" y="440" type="line"/>
    </contour>
  </outline>
</glyph>
<glyph name="one.prop" format="2">
  <advance width="661"/>
  <outline>
    <contour>
      <point x="332" y="1080" type="line"/>
      <point x="260" y="1018"/>
      <point x="180" y="988"/>
      <point x="96" y="976" type="curve"/>
      <point x="96" y="824" type="line"/>
      <point x="166" y="828"/>
      <point x="238" y="850"/>
      <point x="302" y="894" type="curve"/>
      <point x="302" y="0" type="line"/>
      <point x="458" y="0" type="line"/>
      <point x="458" y="1080" type="line"/>
    </contour>
  </outline>
</glyph>
<glyph name="one.tf" format="2">
  <advance width="1200"/>
  <outline>
    <contour>
      <point x="268" y="0" type="line"/>
      <point x="936" y="0" type="line"/>
      <point x="936" y="126" type="line"/>
      <point x="642" y="126" type="line"/>
      <point x="680" y="90" type="line"/>
      <point x="680" y="1260" type="line"/>
      <point x="552" y="1260" type="line"/>
      <point x="482" y="1200"/>
      <point x="402" y="1170"/>
      <point x="318" y="1158" type="curve"/>
      <point x="318" y="1006" type="line"/>
      <point x="406" y="1010"/>
      <point x="498" y="1046"/>
      <point x="576" y="1114" type="curve"/>
      <point x="524" y="1136" type="line"/>
      <point x="524" y="90" type="line"/>
      <point x="560" y="126" type="line"/>
      <point x="268" y="126" type="line"/>
    </contour>
  </outline>
</glyph>
<glyph name="percent.tf" format="2">
  <advance width="1200"/>
  <outline>
    <contour>
      <point x="108" y="0" type="line"/>
      <point x="262" y="0" type="line"/>
      <point x="1094" y="1256" type="line"/>
      <point x="938" y="1256" type="line"/>
    </contour>
    <contour>
      <point x="922" y="-24" type="curve" smooth="yes"/>
      <point x="1050" y="-24"/>
      <point x="1170" y="64"/>
      <point x="1170" y="264" type="curve" smooth="yes"/>
      <point x="1170" y="464"/>
      <point x="1050" y="550"/>
      <point x="922" y="550" type="curve" smooth="yes"/>
      <point x="796" y="550"/>
      <point x="676" y="464"/>
      <point x="676" y="264" type="curve" smooth="yes"/>
      <point x="676" y="64"/>
      <point x="796" y="-24"/>
    </contour>
    <contour>
      <point x="922" y="84" type="curve" smooth="yes"/>
      <point x="844" y="84"/>
      <point x="790" y="138"/>
      <point x="790" y="264" type="curve" smooth="yes"/>
      <point x="790" y="390"/>
      <point x="844" y="446"/>
      <point x="922" y="446" type="curve" smooth="yes"/>
      <point x="996" y="446"/>
      <point x="1052" y="390"/>
      <point x="1052" y="264" type="curve" smooth="yes"/>
      <point x="1052" y="138"/>
      <point x="996" y="84"/>
    </contour>
    <contour>
      <point x="276" y="706" type="curve" smooth="yes"/>
      <point x="404" y="706"/>
      <point x="526" y="792"/>
      <point x="526" y="992" type="curve" smooth="yes"/>
      <point x="526" y="1190"/>
      <point x="404" y="1278"/>
      <point x="276" y="1278" type="curve" smooth="yes"/>
      <point x="152" y="1278"/>
      <point x="30" y="1190"/>
      <point x="30" y="992" type="curve" smooth="yes"/>
      <point x="30" y="792"/>
      <point x="152" y="706"/>
    </contour>
    <contour>
      <point x="276" y="812" type="curve" smooth="yes"/>
      <point x="200" y="812"/>
      <point x="146" y="866"/>
      <point x="146" y="992" type="curve" smooth="yes"/>
      <point x="146" y="1118"/>
      <point x="200" y="1174"/>
      <point x="276" y="1174" type="curve" smooth="yes"/>
      <point x="352" y="1174"/>
      <point x="408" y="1118"/>
      <point x="408" y="992" type="curve" smooth="yes"/>
      <point x="408" y="866"/>
      <point x="352" y="812"/>
    </contour>
  </outline>
</glyph>
<glyph name="period.tf" format="2">
  <advance width="1200"/>
  <outline>
    <contour>
      <point x="598" y="-22" type="curve" smooth="yes"/>
      <point x="674" y="-22"/>
      <point x="730" y="32"/>
      <point x="730" y="102" type="curve" smooth="yes"/>
      <point x="730" y="172"/>
      <point x="674" y="228"/>
      <point x="598" y="228" type="curve" smooth="yes"/>
      <point x="524" y="228"/>
      <point x="470" y="172"/>
      <point x="470" y="102" type="curve" smooth="yes"/>
      <point x="470" y="32"/>
      <point x="524" y="-22"/>
    </contour>
  </outline>
</glyph>
<glyph name="plus.tf" format="2">
  <advance width="1200"/>
  <outline>
    <contour>
      <point x="522" y="982" type="line"/>
      <point x="522" y="558" type="line"/>
      <point x="110" y="558" type="line"/>
      <point x="110" y="424" type="line"/>
      <point x="522" y="424" type="line"/>
      <point x="522" y="0" type="line"/>
      <point x="678" y="0" type="line"/>
      <point x="678" y="424" type="line"/>
      <point x="1092" y="424" type="line"/>
      <point x="1092" y="558" type="line"/>
      <point x="678" y="558" type="line"/>
      <point x="678" y="982" type="line"/>
    </contour>
  </outline>
</glyph>
<glyph name="question.tf" format="2">
  <advance width="1200"/>
  <outline>
    <contour>
      <point x="472" y="320" type="line"/>
      <point x="626" y="320" type="line"/>
      <point x="626" y="400" type="line" smooth="yes"/>
      <point x="626" y="530"/>
      <point x="670" y="574"/>
      <point x="802" y="646" type="curve" smooth="yes"/>
      <point x="956" y="728"/>
      <point x="1022" y="812"/>
      <point x="1022" y="950" type="curve" smooth="yes"/>
      <point x="1022" y="1130"/>
      <point x="866" y="1278"/>
      <point x="608" y="1278" type="curve" smooth="yes"/>
      <point x="342" y="1278"/>
      <point x="196" y="1146"/>
      <point x="178" y="952" type="curve"/>
      <point x="344" y="952" type="line"/>
      <point x="366" y="1068"/>
      <point x="450" y="1136"/>
      <point x="614" y="1136" type="curve" smooth="yes"/>
      <point x="762" y="1136"/>
      <point x="852" y="1058"/>
      <point x="852" y="954" type="curve" smooth="yes"/>
      <point x="852" y="850"/>
      <point x="804" y="806"/>
      <point x="670" y="732" type="curve" smooth="yes"/>
      <point x="520" y="650"/>
      <point x="472" y="584"/>
      <point x="472" y="410" type="curve" smooth="yes"/>
    </contour>
    <contour>
      <point x="552" y="-24" type="curve" smooth="yes"/>
      <point x="618" y="-24"/>
      <point x="670" y="26"/>
      <point x="670" y="88" type="curve" smooth="yes"/>
      <point x="670" y="150"/>
      <point x="618" y="202"/>
      <point x="552" y="202" type="curve" smooth="yes"/>
      <point x="484" y="202"/>
      <point x="436" y="150"/>
      <point x="436" y="88" type="curve" smooth="yes"/>
      <point x="436" y="26"/>
      <point x="484" y="-24"/>
    </contour>
  </outline>
</glyph>
<glyph name="seven.prop" format="2">
  <advance width="939"/>
  <outline>
    <contour>
      <point x="48" y="1100" type="line"/>
      <point x="48" y="962" type="line"/>
      <point x="738" y="962" type="line"/>
      <point x="110" y="-196" type="line"/>
      <point x="302" y="-196" type="line"/>
      <point x="904" y="966" type="line"/>
      <point x="904" y="1100" type="line"/>
    </contour>
  </outline>
</glyph>
<glyph name="seven.tf" format="2">
  <advance width="1200"/>
  <outline>
    <contour>
      <point x="162" y="1256" type="line"/>
      <point x="162" y="1108" type="line"/>
      <point x="834" y="1108" type="line"/>
      <point x="232" y="0" type="line"/>
      <point x="440" y="0" type="line"/>
      <point x="1018" y="1112" type="line"/>
      <point x="1018" y="1256" type="line"/>
    </contour>
  </outline>
</glyph>
<glyph name="six.tf" format="2">
  <advance width="1200"/>
  <outline>
    <contour>
      <point x="616" y="-24" type="curve" smooth="yes"/>
      <point x="870" y="-24"/>
      <point x="1042" y="132"/>
      <point x="1042" y="364" type="curve" smooth="yes"/>
      <point x="1042" y="594"/>
      <point x="870" y="756"/>
      <point x="644" y="756" type="curve" smooth="yes"/>
      <point x="468" y="756"/>
      <point x="302" y="672"/>
      <point x="284" y="406" type="curve"/>
      <point x="278" y="462"/>
      <point x="276" y="532"/>
      <point x="276" y="582" type="curve" smooth="yes"/>
      <point x="276" y="924"/>
      <point x="412" y="1136"/>
      <point x="642" y="1136" type="curve" smooth="yes"/>
      <point x="776" y="1136"/>
      <point x="844" y="1060"/>
      <point x="864" y="940" type="curve"/>
      <point x="1032" y="940" type="line"/>
      <point x="1012" y="1142"/>
      <point x="862" y="1278"/>
      <point x="638" y="1278" type="curve" smooth="yes"/>
      <point x="314" y="1278"/>
      <point x="116" y="1028"/>
      <point x="116" y="606" type="curve" smooth="yes"/>
      <point x="116" y="248"/>
      <point x="314" y="-24"/>
    </contour>
    <contour>
      <point x="616" y="120" type="curve" smooth="yes"/>
      <point x="466" y="120"/>
      <point x="352" y="216"/>
      <point x="352" y="368" type="curve" smooth="yes"/>
      <point x="352" y="512"/>
      <point x="466" y="618"/>
      <point x="616" y="618" type="curve" smooth="yes"/>
      <point x="766" y="618"/>
      <point x="880" y="524"/>
      <point x="880" y="368" type="curve" smooth="yes"/>
      <point x="880" y="216"/>
      <point x="766" y="120"/>
    </contour>
  </outline>
</glyph>
<glyph name="slash.tf" format="2">
  <advance width="1200"/>
  <outline>
    <contour>
      <point x="270" y="-144" type="line"/>
      <point x="428" y="-144" type="line"/>
      <point x="930" y="1462" type="line"/>
      <point x="772" y="1462" type="line"/>
    </contour>
  </outline>
</glyph>
<glyph name="sterling.tf" format="2">
  <advance width="1200"/>
  <outline>
    <contour>
      <point x="146" y="90" type="line"/>
      <point x="380" y="90"/>
      <point x="448" y="160"/>
      <point x="448" y="324" type="curve" smooth="yes"/>
      <point x="448" y="864" type="line" smooth="yes"/>
      <point x="448" y="1052"/>
      <point x="530" y="1136"/>
      <point x="660" y="1136" type="curve" smooth="yes"/>
      <point x="754" y="1136"/>
      <point x="832" y="1086"/>
      <point x="850" y="978" type="curve"/>
      <point x="1004" y="978" type="line"/>
      <point x="972" y="1176"/>
      <point x="848" y="1278"/>
      <point x="660" y="1278" type="curve" smooth="yes"/>
      <point x="416" y="1278"/>
      <point x="292" y="1124"/>
      <point x="292" y="864" type="curve" smooth="yes"/>
      <point x="292" y="316" type="line" smooth="yes"/>
      <point x="292" y="194"/>
      <point x="248" y="136"/>
      <point x="146" y="136" type="curve"/>
    </contour>
    <contour>
      <point x="90" y="0" type="line"/>
      <point x="742" y="0" type="line" smooth="yes"/>
      <point x="1000" y="0"/>
      <point x="1094" y="118"/>
      <point x="1108" y="306" type="curve"/>
      <point x="942" y="306" type="line"/>
      <point x="924" y="190"/>
      <point x="870" y="136"/>
      <point x="740" y="136" type="curve" smooth="yes"/>
      <point x="90" y="136" type="line"/>
    </contour>
    <contour>
      <point x="112" y="534" type="line"/>
      <point x="810" y="534" type="line"/>
      <point x="810" y="644" type="line"/>
      <point x="112" y="644" type="line"/>
    </contour>
  </outline>
</glyph>
<glyph name="three.prop" format="2">
  <advance width="1122"/>
  <outline>
    <contour>
      <point x="516" y="-228" type="curve" smooth="yes"/>
      <point x="796" y="-228"/>
      <point x="984" y="-70"/>
      <point x="984" y="148" type="curve" smooth="yes"/>
      <point x="984" y="314"/>
      <point x="880" y="452"/>
      <point x="718" y="502" type="curve"/>
      <point x="854" y="554"/>
      <point x="936" y="634"/>
      <point x="936" y="768" type="curve" smooth="yes"/>
      <point x="936" y="960"/>
      <point x="768" y="1100"/>
      <point x="516" y="1100" type="curve" smooth="yes"/>
      <point x="296" y="1100"/>
      <point x="126" y="1014"/>
      <point x="92" y="778" type="curve"/>
      <point x="256" y="778" type="line"/>
      <point x="286" y="910"/>
      <point x="388" y="966"/>
      <point x="518" y="966" type="curve" smooth="yes"/>
      <point x="680" y="966"/>
      <point x="776" y="878"/>
      <point x="776" y="756" type="curve" smooth="yes"/>
      <point x="776" y="618"/>
      <point x="658" y="546"/>
      <point x="464" y="546" type="curve" smooth="yes"/>
      <point x="380" y="546" type="line"/>
      <point x="380" y="422" type="line"/>
      <point x="500" y="422" type="line" smooth="yes"/>
      <point x="726" y="422"/>
      <point x="824" y="298"/>
      <point x="824" y="158" type="curve" smooth="yes"/>
      <point x="824" y="14"/>
      <point x="696" y="-92"/>
      <point x="516" y="-92" type="curve" smooth="yes"/>
      <point x="342" y="-92"/>
      <point x="218" y="-8"/>
      <point x="214" y="176" type="curve"/>
      <point x="56" y="176" type="line"/>
      <point x="56" y="-96"/>
      <point x="266" y="-228"/>
    </contour>
  </outline>
</glyph>
<glyph name="three.tf" format="2">
  <advance width="1200"/>
  <outline>
    <contour>
      <point x="606" y="-24" type="curve" smooth="yes"/>
      <point x="892" y="-24"/>
      <point x="1068" y="130"/>
      <point x="1068" y="346" type="curve" smooth="yes"/>
      <point x="1068" y="508"/>
      <point x="958" y="612"/>
      <point x="798" y="658" type="curve"/>
      <point x="940" y="708"/>
      <point x="1018" y="804"/>
      <point x="1018" y="936" type="curve" smooth="yes"/>
      <point x="1018" y="1136"/>
      <point x="834" y="1278"/>
      <point x="586" y="1278" type="curve" smooth="yes"/>
      <point x="362" y="1278"/>
      <point x="184" y="1186"/>
      <point x="152" y="952" type="curve"/>
      <point x="314" y="952" type="line"/>
      <point x="348" y="1092"/>
      <point x="458" y="1136"/>
      <point x="590" y="1136" type="curve" smooth="yes"/>
      <point x="756" y="1136"/>
      <point x="850" y="1042"/>
      <point x="850" y="922" type="curve" smooth="yes"/>
      <point x="850" y="786"/>
      <point x="730" y="704"/>
      <point x="538" y="704" type="curve" smooth="yes"/>
      <point x="440" y="704" type="line"/>
      <point x="440" y="580" type="line"/>
      <point x="584" y="580" type="line" smooth="yes"/>
      <point x="808" y="580"/>
      <point x="900" y="488"/>
      <point x="900" y="358" type="curve" smooth="yes"/>
      <point x="900" y="222"/>
      <point x="790" y="120"/>
      <point x="606" y="120" type="curve" smooth="yes"/>
      <point x="424" y="120"/>
      <point x="282" y="212"/>
      <point x="278" y="384" type="curve"/>
      <point x="116" y="384" type="line"/>
      <point x="116" y="118"/>
      <point x="352" y="-24"/>
    </contour>
  </outline>
</glyph>
<glyph name="two.prop" format="2">
  <advance width="1149"/>
  <outline>
    <contour>
      <point x="128" y="0" type="line"/>
      <point x="998" y="0" type="line"/>
      <point x="998" y="144" type="line"/>
      <point x="284" y="144" type="line"/>
      <point x="284" y="210" type="line" smooth="yes"/>
      <point x="284" y="302"/>
      <point x="338" y="376"/>
      <point x="478" y="408" type="curve" smooth="yes"/>
      <point x="700" y="460" type="line" smooth="yes"/>
      <point x="902" y="510"/>
      <point x="1000" y="600"/>
      <point x="1000" y="772" type="curve" smooth="yes"/>
      <point x="1000" y="948"/>
      <point x="836" y="1100"/>
      <point x="590" y="1100" type="curve" smooth="yes"/>
      <point x="328" y="1100"/>
      <point x="164" y="982"/>
      <point x="150" y="776" type="curve"/>
      <point x="324" y="776" type="line"/>
      <point x="338" y="902"/>
      <point x="442" y="962"/>
      <point x="596" y="962" type="curve" smooth="yes"/>
      <point x="750" y="962"/>
      <point x="842" y="878"/>
      <point x="842" y="780" type="curve" smooth="yes"/>
      <point x="842" y="670"/>
      <point x="774" y="608"/>
      <point x="634" y="576" type="curve" smooth="yes"/>
      <point x="428" y="528" type="line" smooth="yes"/>
      <point x="226" y="482"/>
      <point x="128" y="382"/>
      <point x="128" y="168" type="curve" smooth="yes"/>
    </contour>
  </outline>
</glyph>
<glyph name="two.tf" format="2">
  <advance width="1200"/>
  <outline>
    <contour>
      <point x="154" y="0" type="line"/>
      <point x="1038" y="0" type="line"/>
      <point x="1038" y="144" type="line"/>
      <point x="310" y="144" type="line"/>
      <point x="310" y="204" type="line" smooth="yes"/>
      <point x="310" y="314"/>
      <point x="372" y="376"/>
      <point x="500" y="428" type="curve" smooth="yes"/>
      <point x="756" y="530" type="line" smooth="yes"/>
      <point x="936" y="604"/>
      <point x="1050" y="718"/>
      <point x="1050" y="912" type="curve" smooth="yes"/>
      <point x="1050" y="1126"/>
      <point x="870" y="1278"/>
      <point x="626" y="1278" type="curve" smooth="yes"/>
      <point x="362" y="1278"/>
      <point x="188" y="1156"/>
      <point x="176" y="938" type="curve"/>
      <point x="348" y="938" type="line"/>
      <point x="364" y="1072"/>
      <point x="472" y="1140"/>
      <point x="628" y="1140" type="curve" smooth="yes"/>
      <point x="788" y="1140"/>
      <point x="882" y="1050"/>
      <point x="882" y="922" type="curve" smooth="yes"/>
      <point x="882" y="800"/>
      <point x="816" y="722"/>
      <point x="688" y="670" type="curve" smooth="yes"/>
      <point x="440" y="572" type="line" smooth="yes"/>
      <point x="266" y="502"/>
      <point x="154" y="404"/>
      <point x="154" y="186" type="curve" smooth="yes"/>
    </contour>
  </outline>
</glyph>
<glyph name="yen.tf" format="2">
  <advance width="1200"/>
  <outline>
    <contour>
      <point x="518" y="0" type="line"/>
      <point x="676" y="0" type="line"/>
      <point x="676" y="516" type="line"/>
      <point x="1122" y="1256" type="line"/>
      <point x="936" y="1256" type="line"/>
      <point x="578" y="646" type="line"/>
      <point x="618" y="646" type="line"/>
      <point x="264" y="1256" type="line"/>
      <point x="78" y="1256" type="line"/>
      <point x="518" y="516" type="line"/>
    </contour>
    <contour>
      <point x="260" y="202" type="line"/>
      <point x="938" y="202" type="line"/>
      <point x="938" y="300" type="line"/>
      <point x="260" y="300" type="line"/>
    </contour>
    <contour>
      <point x="260" y="400" type="line"/>
      <point x="938" y="400" type="line"/>
      <point x="938" y="498" type="line"/>
      <point x="260" y="498" type="line"/>
    </contour>
  </outline>
</glyph>
<glyph name="zero.prop" format="2">
  <advance width="1061"/>
  <outline>
    <contour>
      <point x="530" y="1100" type="curve" smooth="yes"/>
      <point x="278" y="1100"/>
      <point x="102" y="914"/>
      <point x="102" y="540" type="curve" smooth="yes"/>
      <point x="102" y="164"/>
      <point x="278" y="-24"/>
      <point x="530" y="-24" type="curve" smooth="yes"/>
      <point x="782" y="-24"/>
      <point x="960" y="164"/>
      <point x="960" y="540" type="curve" smooth="yes"/>
      <point x="960" y="914"/>
      <point x="782" y="1100"/>
    </contour>
    <contour>
      <point x="530" y="962" type="curve" smooth="yes"/>
      <point x="716" y="962"/>
      <point x="802" y="816"/>
      <point x="802" y="540" type="curve" smooth="yes"/>
      <point x="802" y="264"/>
      <point x="716" y="116"/>
      <point x="530" y="116" type="curve" smooth="yes"/>
      <point x="348" y="116"/>
      <point x="262" y="264"/>
      <point x="262" y="540" type="curve" smooth="yes"/>
      <point x="262" y="816"/>
      <point x="348" y="962"/>
    </contour>
  </outline>
</glyph>
<glyph name="zero.tf" format="2">
  <advance width="1200"/>
  <outline>
    <contour>
      <point x="600" y="-24" type="curve" smooth="yes"/>
      <point x="894" y="-24"/>
      <point x="1092" y="192"/>
      <point x="1092" y="628" type="curve" smooth="yes"/>
      <point x="1092" y="1064"/>
      <point x="894" y="1278"/>
      <point x="600" y="1278" type="curve" smooth="yes"/>
      <point x="304" y="1278"/>
      <point x="108" y="1064"/>
      <point x="108" y="628" type="curve" smooth="yes"/>
      <point x="108" y="192"/>
      <point x="304" y="-24"/>
    </contour>
    <contour>
      <point x="600" y="120" type="curve" smooth="yes"/>
      <point x="386" y="120"/>
      <point x="270" y="304"/>
      <point x="270" y="628" type="curve" smooth="yes"/>
      <point x="270" y="952"/>
      <point x="386" y="1136"/>
      <point x="600" y="1136" type="curve" smooth="yes"/>
      <point x="816" y="1136"/>
      <point x="930" y="952"/>
      <point x="930" y="628" type="curve" smooth="yes"/>
      <point x="930" y="304"/>
      <point x="816" y="120"/>
    </contour>
  </outline>
</glyph>
